<svg width="110" height="102" viewBox="0 0 110 102" fill="none" xmlns="http://www.w3.org/2000/svg">
<path fill-rule="evenodd" clip-rule="evenodd" d="M106.775 78.7832C98.5463 68.5726 91.4788 58.0545 84.5559 45.6884C77.7015 33.44 72.3731 21.798 67.7738 8.98991C65.6909 3.52771 60.6788 0 55.0002 0C49.3284 0 44.3163 3.52771 42.1989 9.05509C37.6338 21.798 32.3062 33.4359 25.4446 45.6884C18.5284 58.0419 11.4679 68.5641 3.23145 78.7769C1.11403 81.3912 0 84.5169 0 87.8279C0 95.6433 6.16686 102 13.7503 102C14.6646 102 15.5515 101.901 16.3287 101.745C29.1845 99.4721 41.1046 97.363 54.999 97.363C68.8933 97.363 80.8224 99.4721 93.5895 101.724C94.4489 101.901 95.3354 102 96.25 102C103.833 102 110 95.6433 110 87.8279C110 84.5086 108.886 81.3849 106.775 78.7832Z" fill="#006CE7"/>
</svg>