<svg width="17" height="17" viewBox="0 0 17 17" fill="none" xmlns="http://www.w3.org/2000/svg">
<path d="M8.5 16C12.6421 16 16 12.6421 16 8.5C16 4.35786 12.6421 1 8.5 1C4.35786 1 1 4.35786 1 8.5C1 12.6421 4.35786 16 8.5 16Z" stroke="#222222" stroke-width="1.3" stroke-miterlimit="10"/>
<path d="M5.80469 1.5C9.01015 5.45871 11.0528 10.2301 11.7047 15.282" stroke="#222222" stroke-width="1.3" stroke-miterlimit="10"/>
<path d="M1.06738 7.5002C3.37909 7.85902 5.74323 7.65557 7.95965 6.90708C10.1761 6.15858 12.1795 4.88707 13.8004 3.2002" stroke="#222222" stroke-width="1.3" stroke-miterlimit="10"/>
<path d="M3.38867 13.9867C4.61889 11.8678 6.53943 10.2355 8.829 9.36306C11.1186 8.4906 13.6383 8.4308 15.9667 9.19369" stroke="#222222" stroke-width="1.3" stroke-miterlimit="10"/>
</svg>
