<svg width="16" height="16" viewBox="0 0 16 16" fill="none" xmlns="http://www.w3.org/2000/svg">
<path d="M11 0H5C3.67392 0 2.40215 0.526784 1.46447 1.46447C0.526784 2.40215 0 3.67392 0 5L0 11C0 12.3261 0.526784 13.5979 1.46447 14.5355C2.40215 15.4732 3.67392 16 5 16H11C12.3261 16 13.5979 15.4732 14.5355 14.5355C15.4732 13.5979 16 12.3261 16 11V5C16 3.67392 15.4732 2.40215 14.5355 1.46447C13.5979 0.526784 12.3261 0 11 0V0ZM14.5 11C14.5 11.9283 14.1313 12.8185 13.4749 13.4749C12.8185 14.1313 11.9283 14.5 11 14.5H5C4.07174 14.5 3.1815 14.1313 2.52513 13.4749C1.86875 12.8185 1.5 11.9283 1.5 11V5C1.5 4.07174 1.86875 3.1815 2.52513 2.52513C3.1815 1.86875 4.07174 1.5 5 1.5H11C11.9283 1.5 12.8185 1.86875 13.4749 2.52513C14.1313 3.1815 14.5 4.07174 14.5 5V11Z" fill="#222222"/>
<path d="M8 4C7.20888 4 6.43552 4.2346 5.77772 4.67412C5.11992 5.11365 4.60723 5.73836 4.30448 6.46927C4.00173 7.20017 3.92252 8.00444 4.07686 8.78036C4.2312 9.55629 4.61216 10.269 5.17157 10.8284C5.73098 11.3878 6.44372 11.7688 7.21964 11.9231C7.99556 12.0775 8.79983 11.9983 9.53074 11.6955C10.2616 11.3928 10.8864 10.8801 11.3259 10.2223C11.7654 9.56448 12 8.79113 12 8C12 6.93913 11.5786 5.92172 10.8284 5.17157C10.0783 4.42143 9.06087 4 8 4ZM8 10.5C7.50555 10.5 7.0222 10.3534 6.61108 10.0787C6.19995 9.80397 5.87952 9.41352 5.6903 8.95671C5.50108 8.49989 5.45158 7.99723 5.54804 7.51227C5.6445 7.02732 5.8826 6.58186 6.23223 6.23223C6.58187 5.8826 7.02732 5.6445 7.51228 5.54804C7.99723 5.45157 8.4999 5.50108 8.95671 5.6903C9.41353 5.87952 9.80397 6.19995 10.0787 6.61107C10.3534 7.0222 10.5 7.50555 10.5 8C10.5 8.66304 10.2366 9.29893 9.76777 9.76777C9.29893 10.2366 8.66304 10.5 8 10.5Z" fill="#222222"/>
<path d="M12.2996 4.23299C12.594 4.23299 12.8326 3.99436 12.8326 3.69999C12.8326 3.40562 12.594 3.16699 12.2996 3.16699C12.0052 3.16699 11.7666 3.40562 11.7666 3.69999C11.7666 3.99436 12.0052 4.23299 12.2996 4.23299Z" fill="#222222"/>
</svg>
