<?xml version="1.0"?>
<!--Icons from directory ""-->
<svg xmlns="http://www.w3.org/2000/svg" width="50" height="395" viewBox="0 0 50 395"><svg width="32" height="32" fill="none" id="active_trail_logo" y="0"><path d="M32 0H0v31.85h32V0z" fill="#242B3B"/><path d="M9.02 20.307l-.556 3.196H4.84L8.295 7.307h4.55l2.974 16.219h-3.625l-.532-3.196-2.642-.023zm2.344-2.863l-.413-3.078c-.12-.913-.34-2.671-.482-3.68h-.05c-.17 1.009-.413 2.817-.555 3.68l-.482 3.078h1.982zM17.672 10.754h-2.826V7.307h9.428v3.465H21.42v12.736h-3.748V10.754z" fill="#fff"/><path d="M25.16 23.698c-1.111 0-2.08-.936-2.08-2.383a2.277 2.277 0 01.57-1.638c.398-.45.958-.727 1.56-.769 1.137 0 2.1.89 2.1 2.407 0 1.442-.87 2.383-2.128 2.383h-.023z" fill="#3B8AC9"/><path d="M20.732 31.059h-9.318v.94h9.318v-.94z" fill="#E84061"/></svg><svg width="32" height="29" fill="none" id="adoric_CRM_logo" y="32"><path fill-rule="evenodd" clip-rule="evenodd" d="M31.062 22.4c-2.394-2.904-4.45-5.894-6.464-9.41-1.994-3.483-3.544-6.793-4.882-10.434A3.972 3.972 0 0016 0c-1.65 0-3.108 1.003-3.724 2.574-1.328 3.623-2.878 6.932-4.874 10.416C5.39 16.502 3.336 19.494.94 22.397A3.99 3.99 0 000 24.971C0 27.193 1.794 29 4 29c.266 0 .524-.028.75-.072 3.74-.647 7.208-1.246 11.25-1.246s7.512.6 11.226 1.24c.25.05.508.078.774.078 2.206 0 4-1.807 4-4.03 0-.943-.324-1.831-.938-2.57z" fill="#006CE7"/></svg><svg width="32" height="32" fill="none" id="aweber_logo" y="61"><path d="M8.063 0h-.252C3.528 0 0 3.537 0 7.832v16.336C0 28.463 3.528 32 7.811 32h.588c-2.016-5.305-3.024-10.863-3.024-16.59 0-5.305.924-10.442 2.688-15.41zM24.105 0H13.691c-1.932 4.8-3.024 10.021-3.024 15.41 0 5.895 1.26 11.453 3.527 16.59h9.995C28.473 32 32 28.463 32 24.168V7.832C31.916 3.537 28.39 0 24.105 0zM19.15 29.979a1.439 1.439 0 01-1.932-.253 22.257 22.257 0 01-4.535-13.473c0-4.969 1.595-9.685 4.535-13.558a1.439 1.439 0 011.932-.253c.588.505.672 1.347.252 1.937-2.52 3.284-3.948 7.41-3.948 11.874 0 4.463 1.512 8.505 3.948 11.79l.084.083c.42.59.336 1.432-.336 1.853zm5.04-3.874c-.42.337-1.009.253-1.26-.168-2.1-2.695-3.36-5.98-3.36-9.684 0-3.621 1.26-6.99 3.36-9.685v-.084c.335-.42.923-.42 1.26-.168.42.337.42.926.167 1.263l-.084.084a13.73 13.73 0 00-2.94 8.505c0 3.2 1.093 6.148 2.94 8.506l.084.084c.336.42.252 1.01-.168 1.347z" fill="#0079C1"/></svg><svg width="50" height="14" fill="none" id="bronto_logo" y="93"><path d="M21.583 4.063h3.304l-1.747-2.7-3.206 4.887h-1.463L22.372.382A.93.93 0 0123.14 0a.915.915 0 01.752.37l3.913 5.88h-1.459l-.688-1.094h-3.345l-.73-1.093zM36.74 5.156V.06h-1.238v5.596c0 .156.064.306.18.415a.65.65 0 00.452.18h5.647l.731-1.094H36.74zm-20.487-.913a2.196 2.196 0 001.92-1.034 2.022 2.022 0 000-2.116A2.196 2.196 0 0016.252.06h-5.415V6.25h1.238v-5.1h4.096c.564.016 1.014.46 1.014 1.004 0 .543-.45.987-1.014 1.002l-3.495-.004 3.702 3.098h1.798L15.69 4.245l.563-.002zM3.219 6.25C1.441 6.25 0 4.865 0 3.155 0 1.446 1.441.062 3.219.062h3.738c1.778 0 3.22 1.385 3.22 3.095 0 1.709-1.442 3.094-3.22 3.094H3.22zm3.657-1.094a2.103 2.103 0 001.839-.99c.381-.625.381-1.4 0-2.025a2.103 2.103 0 00-1.839-.99H3.3a2.103 2.103 0 00-1.839.99 1.936 1.936 0 000 2.026 2.103 2.103 0 001.84.99h3.575zM30.393 6.25c-1.778 0-3.22-1.386-3.22-3.095 0-1.71 1.442-3.096 3.22-3.096h4.445l-.724 1.094h-3.64a2.105 2.105 0 00-1.872.977 1.936 1.936 0 000 2.049 2.105 2.105 0 001.873.977h4.465l-.732 1.094h-3.815zm15.138-1.094c-.932 0-1.75-.595-2.004-1.457h5.292l.732-1.093h-6.022c.255-.861 1.072-1.456 2.004-1.458h3.633l.732-1.093h-4.449c-1.778 0-3.219 1.385-3.219 3.094 0 1.71 1.441 3.095 3.219 3.095h3.82L50 5.15h-4.469v.006z" fill="#F80000"/><path d="M0 7.271c.44-.088.888-.13 1.336-.127.731 0 1.202.137 1.555.447.294.237.47.602.47 1.085 0 .593-.36 1.113-.958 1.35v.019c.538.146 1.168.629 1.168 1.541a1.73 1.73 0 01-.478 1.233c-.395.392-1.034.574-1.958.574A7.888 7.888 0 010 13.32V7.271zM.731 9.79h.664c.773 0 1.227-.438 1.227-1.03 0-.721-.504-1.004-1.244-1.004a2.895 2.895 0 00-.647.055v1.98zm0 2.947c.204.03.409.041.614.036.756 0 1.453-.3 1.453-1.195 0-.84-.663-1.186-1.462-1.186H.731v2.345zM4.508 10.991c0-.411-.01-.765-.044-1.09h.85l.032.686h.044c.243-.469.827-.765 1.477-.765.093 0 .186.007.276.022v.599a2.204 2.204 0 00-.33-.022c-.684 0-1.17.34-1.301.815a1.196 1.196 0 00-.045.296v1.862h-.959V10.99zM10.714 11.58c0 1.263-.936 1.814-1.82 1.814-.989 0-1.751-.678-1.751-1.758 0-1.143.8-1.814 1.812-1.814 1.05 0 1.76.713 1.76 1.758zm-2.9.035c0 .748.461 1.313 1.11 1.313.635 0 1.11-.558 1.11-1.327 0-.579-.309-1.313-1.094-1.313-.785 0-1.125.678-1.125 1.327zM11.642 10.847c0-.36-.01-.656-.035-.945h.67l.043.577h.017c.277-.416.806-.669 1.373-.656.576 0 1.469.288 1.469 1.486v2.085h-.756V11.38c0-.563-.249-1.032-.961-1.032-.471.007-.882.27-1.014.65a.78.78 0 00-.051.295v2.1h-.755v-2.547zM16.681 8.93v.98h1.176v.472h-1.176v1.84c0 .423.159.663.616.663.16.002.32-.012.476-.042l.038.465a2.61 2.61 0 01-.729.085c-.382 0-.69-.092-.886-.261-.233-.183-.317-.487-.317-.889v-1.86h-.7V9.91h.7v-.818l.802-.163zM22.321 11.58c0 1.263-.936 1.814-1.82 1.814-.988 0-1.751-.678-1.751-1.758 0-1.143.8-1.814 1.812-1.814 1.05 0 1.76.713 1.76 1.758zm-2.899.035c0 .748.46 1.313 1.11 1.313.634 0 1.11-.558 1.11-1.327 0-.579-.31-1.313-1.095-1.313-.785 0-1.125.678-1.125 1.327z" fill="#222"/></svg><svg width="32" height="21" fill="none" id="campaign_monitor_logo" y="107"><path d="M1.215 20.999h29.569c.322 0 .632-.124.86-.346.228-.221.357-.522.357-.835V1.16a1.156 1.156 0 00-.185-.605 1.206 1.206 0 00-.48-.427 1.25 1.25 0 00-1.252.084L.23 20.494c.11.154.257.281.429.37.172.087.362.134.557.135zM14.217 8.558L1.917.215A1.24 1.24 0 00.664.128a1.203 1.203 0 00-.48.428C.067.738.004.948 0 1.163v18.691L14.217 8.558z" fill="#7856FF"/></svg><svg width="32" height="33" fill="none" id="constant_contact_logo" y="128"><path fill-rule="evenodd" clip-rule="evenodd" d="M6.528 23.658c-.51 0-.838-.4-.838-1.018 0-.814.477-1.991 1.34-1.991.779 0 .817.833.817 1 0 .948-.564 2.009-1.32 2.009zm2.134-3.425c.33.362.512.864.512 1.415 0 .805-.277 1.56-.78 2.127a2.67 2.67 0 01-2.02.908c-1.197 0-2.001-.809-2.001-2.014 0-.806.275-1.564.775-2.131a2.653 2.653 0 012.017-.914c.617 0 1.135.21 1.497.609zm-4.424 3.25c.087.414.371.77.373.773.016.019.021.045.016.069a.08.08 0 01-.045.053c-.208.092-.792.305-1.732.305-.852 0-1.569-.261-2.074-.758C.27 23.427 0 22.715 0 21.87c0-1.337.568-2.525 1.558-3.26.69-.522 1.521-.787 2.47-.787.692 0 1.244.163 1.464.314.03.02.042.057.03.092l-.329.905a.075.075 0 01-.046.046.081.081 0 01-.066-.004c-.188-.102-.612-.221-1.188-.221-.6 0-1.185.21-1.607.577-.578.507-.91 1.31-.91 2.203 0 1.16.643 1.827 1.764 1.827.352 0 .706-.05.997-.14a.08.08 0 01.101.06zm8.235-3.86c.787 0 1.276.526 1.276 1.37 0 .21-.036.536-.089.796l-.52 2.723a.078.078 0 01-.079.065h-1.12a.079.079 0 01-.077-.093l.501-2.648c.026-.156.057-.362.057-.544 0-.406-.162-.595-.51-.595-.485 0-1.101.617-1.292 1.649l-.405 2.166a.079.079 0 01-.079.065h-1.12a.08.08 0 01-.077-.093l.608-3.235c.108-.52.174-.988.229-1.366l.012-.085a.079.079 0 01.078-.068h.995c.023 0 .044.01.058.026a.078.078 0 01.02.062l-.067.588c.423-.506.983-.782 1.6-.782zm11.914.308l-.483 2.445c-.13.683-.21 1.548-.19 2.11v.012a.08.08 0 01-.08.08h-1.043a.08.08 0 01-.057-.024.082.082 0 01-.023-.058c.008-.212.032-.48.06-.768-.512.782-1.143.955-1.601.955-.88 0-1.47-.673-1.47-1.677 0-.85.311-1.69.854-2.303.435-.493 1.229-1.08 2.537-1.08.473 0 1.038.086 1.443.217a.08.08 0 01.053.09zm-1.796.717c-1.01 0-1.764 1.138-1.764 2.155 0 .305.078.816.596.816.47 0 1.086-.625 1.303-1.784l.235-1.157a2.053 2.053 0 00-.37-.03zm5.027-1.024c.788 0 1.276.524 1.276 1.369 0 .21-.036.537-.087.795l-.522 2.724a.08.08 0 01-.078.065h-1.12a.078.078 0 01-.061-.029.076.076 0 01-.017-.065l.502-2.648c.025-.156.056-.36.056-.543 0-.406-.162-.595-.51-.595-.485 0-1.1.617-1.29 1.649l-.407 2.166a.079.079 0 01-.079.065h-1.118a.078.078 0 01-.062-.029.08.08 0 01-.017-.065l.608-3.235c.108-.521.175-.992.23-1.37l.011-.08a.078.078 0 01.026-.049.08.08 0 01.052-.02h.995a.079.079 0 01.079.088l-.067.589c.423-.507.982-.782 1.6-.782zm-10.529.25a.08.08 0 01.035.096l-.29.809a.075.075 0 01-.047.047.078.078 0 01-.066-.004 1.79 1.79 0 00-.84-.202c-.374 0-.634.193-.634.47 0 .205.158.366.564.574.438.238 1.018.635 1.018 1.332 0 .517-.21.95-.606 1.253-.372.284-.881.434-1.472.434-.451-.008-.906-.11-1.217-.276a.08.08 0 01-.04-.084l.168-.884a.079.079 0 01.08-.064.08.08 0 01.036.01c.254.14.688.302 1.08.302.378-.009.644-.213.644-.498 0-.235-.089-.4-.575-.652-.643-.345-.97-.78-.97-1.294a1.47 1.47 0 01.565-1.17c.358-.29.861-.45 1.417-.45.533 0 .944.13 1.15.252zm2.136 3.772c.01.3.078.568.202.795a.086.086 0 01.01.048l-.004.027a.082.082 0 01-.052.066c-.173.06-.478.1-.76.1-.885 0-1.2-.542-1.2-1.05 0-.28.032-.545.108-.885l.355-1.833h-.676a.082.082 0 01-.065-.034.079.079 0 01-.01-.072l.299-.866a.08.08 0 01.076-.053h.57l.184-.96a.08.08 0 01.056-.063l1.168-.337a.081.081 0 01.098.052.079.079 0 01.003.04l-.246 1.268h.84c.026 0 .05.012.066.033.014.02.018.048.01.072l-.3.866a.08.08 0 01-.075.053h-.736l-.332 1.674c-.05.28-.076.489-.076.64 0 .238.104.345.336.345l.06-.002h.01a.08.08 0 01.074.046c.004.01.006.02.007.03zm12.761-3.724a.081.081 0 01.01.072l-.3.866a.079.079 0 01-.075.053h-.735l-.076.382h.003l-.257 1.292a3.81 3.81 0 00-.076.64c0 .238.103.344.335.344.02 0 .042 0 .062-.002h.013c.107-.002.21-.011.299-.025a.077.077 0 01.067.02.079.079 0 01.025.068l-.106.884a.078.078 0 01-.053.066c-.172.06-.477.1-.76.1-.885 0-1.2-.542-1.2-1.05 0-.213.018-.418.06-.654.014-.074.029-.15.047-.23l.355-1.834h-.42a.084.084 0 01-.058-.026.082.082 0 01-.02-.06c.027-.37-.08-.693-.157-.819a.078.078 0 01-.001-.08.08.08 0 01.07-.04h.78l.184-.962a.08.08 0 01.056-.061l1.168-.336a.08.08 0 01.1.091l-.245 1.268h.84a.08.08 0 01.065.033zM9.79 28.55c.33.361.512.864.512 1.415 0 .805-.278 1.56-.781 2.126A2.667 2.667 0 017.5 33c-1.198 0-2.002-.81-2.002-2.015 0-.806.275-1.563.775-2.13a2.654 2.654 0 012.017-.914c.617 0 1.136.21 1.498.609zm-2.136 3.425c.756 0 1.32-1.06 1.32-2.01 0-.167-.04-.999-.818-.999-.863 0-1.34 1.177-1.34 1.99 0 .619.33 1.019.838 1.019zM5.322 31.8c.087.414.37.769.374.773a.081.081 0 01.015.069.077.077 0 01-.046.053c-.207.091-.79.305-1.73.305-.853 0-1.57-.262-2.075-.758-.507-.498-.775-1.21-.775-2.056 0-1.336.568-2.524 1.558-3.26.69-.522 1.52-.785 2.469-.785.692 0 1.245.162 1.464.312.03.02.043.058.03.093l-.329.905a.079.079 0 01-.08.052.08.08 0 01-.032-.01c-.188-.102-.612-.221-1.188-.221a2.48 2.48 0 00-1.608.577c-.577.508-.908 1.311-.908 2.203 0 1.16.642 1.827 1.763 1.827.352 0 .706-.05.997-.14a.08.08 0 01.101.06zm8.314-3.86c.788 0 1.276.526 1.276 1.37 0 .21-.037.536-.088.796L14.3 32.83a.077.077 0 01-.078.064h-1.119a.077.077 0 01-.06-.029.076.076 0 01-.017-.065l.501-2.647c.026-.156.057-.362.057-.544 0-.406-.162-.595-.51-.595-.485 0-1.101.617-1.293 1.649l-.405 2.167a.078.078 0 01-.077.064h-1.12a.078.078 0 01-.06-.029.076.076 0 01-.018-.065l.608-3.235c.09-.452.166-.908.229-1.365l.011-.085a.08.08 0 01.078-.068h.995c.024 0 .045.01.06.026a.074.074 0 01.02.062l-.066.588c.421-.506.98-.782 1.599-.782zm12.523.19a.08.08 0 01.044.098l-.29.876a.078.078 0 01-.044.047.082.082 0 01-.064 0 1.602 1.602 0 00-.672-.137c-1.049 0-1.696.983-1.696 1.895 0 .636.356 1.017.952 1.017.428 0 .745-.114.973-.214a.08.08 0 01.074.005.084.084 0 01.037.064l.039.866a.079.079 0 01-.045.075c-.13.066-.617.278-1.386.278-1.204 0-1.982-.768-1.982-1.957 0-.827.307-1.602.863-2.18a3.03 3.03 0 012.21-.923c.41 0 .788.102.987.19zm3.166.109a.081.081 0 01.01.072l-.3.866a.079.079 0 01-.075.053h-.734l-.332 1.674a3.718 3.718 0 00-.075.64c0 .238.103.344.334.344.021 0 .042 0 .063-.002h.013c.1-.002.2-.01.298-.026a.076.076 0 01.067.021.08.08 0 01.02.03c.005.012.007.025.005.037l-.107.885a.077.077 0 01-.052.066c-.172.06-.478.1-.76.1-.885 0-1.2-.543-1.2-1.05 0-.28.031-.544.107-.885l.355-1.834h-.676a.082.082 0 01-.065-.033.081.081 0 01-.01-.072l.3-.866a.08.08 0 01.075-.054h.57l.184-.96a.08.08 0 01.056-.062l1.169-.336a.076.076 0 01.057.005.083.083 0 01.02.012.08.08 0 01.024.074l-.244 1.268h.836c.027 0 .051.012.067.033zm-7.04.008l-.482 2.445c-.132.683-.21 1.549-.192 2.11a.078.078 0 01-.045.084.081.081 0 01-.033.007H20.49a.08.08 0 01-.057-.023.083.083 0 01-.023-.058c.008-.211.032-.48.059-.767-.512.782-1.142.955-1.6.955-.879 0-1.47-.674-1.47-1.677 0-.851.311-1.691.854-2.304.435-.492 1.23-1.079 2.537-1.079.472 0 1.038.085 1.443.216a.078.078 0 01.053.09zm-1.796.719c-1.009 0-1.764 1.137-1.764 2.154 0 .304.077.816.596.816.47 0 1.087-.625 1.302-1.783l.237-1.158a2.058 2.058 0 00-.371-.03zm-3.459 2.997c.011.3.08.568.203.795a.074.074 0 01.01.048l-.003.027a.08.08 0 01-.053.066c-.172.06-.478.1-.76.1-.884 0-1.2-.542-1.2-1.05 0-.28.032-.545.109-.885l.354-1.834h-.418a.081.081 0 01-.058-.025.078.078 0 01-.021-.06c.027-.371-.078-.693-.157-.819a.08.08 0 01.028-.11.08.08 0 01.04-.01h.78l.184-.961a.08.08 0 01.057-.062l1.168-.337a.08.08 0 01.076.017c.02.02.029.047.024.075l-.245 1.268h.84a.081.081 0 01.065.033.078.078 0 01.01.072l-.3.866a.078.078 0 01-.075.053h-.735l-.333 1.673c-.05.28-.075.49-.075.641 0 .238.103.344.336.344H16.95a.077.077 0 01.056.02.077.077 0 01.024.055zm14.19-5.269c0 .387-.323.783-.778.783-.442.009-.775-.374-.775-.783 0-.572.464-.79.775-.79.2 0 .777.149.777.79zm-.117.007a.655.655 0 00-1.125-.475.66.66 0 00-.195.464c0 .439.396.653.646.662a.676.676 0 00.674-.65zm-.276.41H30.6l-.166-.356h-.114v.356h-.198v-.866h.335c.163 0 .366.042.369.24.002.119-.069.196-.193.237l.192.39zm-.213-.614c0-.101-.094-.13-.208-.13h-.083v.263h.083c.117 0 .203-.023.208-.133z" fill="#222"/><path fill-rule="evenodd" clip-rule="evenodd" d="M18.465 8.963a31.11 31.11 0 014.563-.804c.296-1.14.655-2.263 1.076-3.365l-.142.025c-1.462.275-2.903.65-4.312 1.123a31.315 31.315 0 00-1.184 3.021h-.001zm-3.76-1.512c.462-.936.969-1.85 1.518-2.739a40.05 40.05 0 00-2.479 1.535 32.368 32.368 0 00-1.719 2.762c.868-.56 1.762-1.08 2.68-1.557" fill="#FCD98D"/><path fill-rule="evenodd" clip-rule="evenodd" d="M17.84 9.132c.32-1 .689-1.982 1.106-2.945a32.856 32.856 0 00-3.836 1.666c-.42.864-.799 1.746-1.138 2.644 1.255-.544 2.548-1 3.867-1.366" fill="#809EBA"/><path fill-rule="evenodd" clip-rule="evenodd" d="M23.877 4.281c.155-.028.308-.056.46-.081.464-1.149.994-2.27 1.585-3.361a35.277 35.277 0 00-4.234 1.3 32.913 32.913 0 00-1.724 3.126 32.91 32.91 0 013.913-.984zM9.642 12.853c.274-.723.581-1.454.92-2.174-.575.424-1.135.866-1.68 1.326a31.086 31.086 0 00-1.354 2.411 27.033 27.033 0 012.114-1.563z" fill="#2B5E8C"/><path fill-rule="evenodd" clip-rule="evenodd" d="M13.281 10.808c.307-.858.65-1.702 1.03-2.531a32.93 32.93 0 00-2.824 1.743 30.745 30.745 0 00-1.067 2.335 27.743 27.743 0 012.862-1.547" fill="#F9B31B"/><path fill-rule="evenodd" clip-rule="evenodd" d="M23.605 8.104a31.57 31.57 0 015.06-.028c.382-1.34.787-2.606 1.235-3.796-.074-.002-.148-.002-.224-.002-1.613 0-3.278.138-4.947.408a31.031 31.031 0 00-1.124 3.418z" fill="#809EBA"/><path fill-rule="evenodd" clip-rule="evenodd" d="M29.674 3.736c.15 0 .294.001.434.004A28.352 28.352 0 0131.9 0a30.976 30.976 0 00-5.268.68 32.84 32.84 0 00-1.666 3.419 31.504 31.504 0 014.708-.363zM17.503 12.64a30.962 30.962 0 014.783-.438c.117-1.124.322-2.295.605-3.484-1.561.168-3.106.454-4.622.857a28.199 28.199 0 00-.766 3.065z" fill="#F9B31B"/><path fill-rule="evenodd" clip-rule="evenodd" d="M8.715 15.772c.17-.668.376-1.353.61-2.042a26.839 26.839 0 00-2.374 1.898c-.277.617-.53 1.245-.758 1.881a21.704 21.704 0 012.522-1.737z" fill="#FCD98D"/><path fill-rule="evenodd" clip-rule="evenodd" d="M16.931 12.742c.185-1.01.425-2.01.719-2.994a28.99 28.99 0 00-3.934 1.457 27.706 27.706 0 00-.769 2.604c1.3-.454 2.631-.81 3.985-1.067" fill="#2B5E8C"/></svg><svg width="32" height="21" fill="none" id="get_response_logo" y="161"><path d="M32 19.604c0 .791-.621 1.394-1.352 1.394H1.352C.62 21.036 0 20.395 0 19.603V1.396C0 .64.621 0 1.352 0h29.26c.767 0 1.351.64 1.351 1.395v18.209H32z" fill="#00BAFF"/><path d="M31.708.526c-3.799 6.07-9.68 11.65-15.744 11.499-2.228-.038-4.785-.717-6.94-2.526a11.4 11.4 0 01-3.836-6.484H4.53c-.986 0-1.57.904-1.461 1.734.037.188.073.414.11.64.475 2.941 2.155 6.259 4.968 8.408 2.191 1.658 4.895 2.752 7.853 2.752 5.334 0 11.032-3.506 16-12.517V1.394c0-.302-.11-.641-.292-.868z" fill="#fff"/></svg><svg width="32" height="34" fill="none" id="hubspot_logo" y="182"><path d="M24.612 11.235V7.203a3.08 3.08 0 001.285-1.141A3.14 3.14 0 0026.38 4.4v-.095a3.137 3.137 0 00-.9-2.194 3.05 3.05 0 00-2.164-.912h-.093a3.05 3.05 0 00-2.163.912 3.137 3.137 0 00-.9 2.194v.095a3.14 3.14 0 00.483 1.66 3.08 3.08 0 001.285 1.142v4.04a8.63 8.63 0 00-4.131 1.844L6.86 4.451c.208-.79.14-1.63-.193-2.374A3.516 3.516 0 005.033.365 3.446 3.446 0 002.698.092a3.485 3.485 0 00-1.975 1.29 3.571 3.571 0 00.14 4.484 3.477 3.477 0 002.05 1.161 3.448 3.448 0 002.313-.42l10.753 8.487a8.925 8.925 0 00-1.45 5.002 8.92 8.92 0 001.584 4.96l-3.272 3.318a2.773 2.773 0 00-.812-.134c-.562 0-1.111.169-1.578.485a2.872 2.872 0 00-1.046 1.293 2.917 2.917 0 00-.162 1.664c.11.558.38 1.072.777 1.474a2.83 2.83 0 001.455.789 2.804 2.804 0 001.64-.164 2.85 2.85 0 001.276-1.061 2.91 2.91 0 00.478-1.6 2.876 2.876 0 00-.132-.823l3.237-3.283a8.672 8.672 0 003.588 1.646 8.61 8.61 0 003.936-.121 8.69 8.69 0 003.483-1.863 8.845 8.845 0 002.32-3.225 8.959 8.959 0 00-.4-7.77 8.807 8.807 0 00-2.64-2.961 8.66 8.66 0 00-3.656-1.485h.007zM23.265 24.52a4.435 4.435 0 01-2.486-.77 4.53 4.53 0 01-1.645-2.041 4.6 4.6 0 01-.25-2.624 4.561 4.561 0 011.229-2.322 4.46 4.46 0 012.293-1.24 4.421 4.421 0 012.587.261A4.494 4.494 0 0127 17.459c.491.747.753 1.625.753 2.523 0 1.204-.472 2.359-1.312 3.21a4.447 4.447 0 01-3.167 1.33" fill="#FF7A59"/></svg><svg width="34" height="23" fill="none" id="klaviyo_logo" y="216"><path d="M.688 10.415L15.932.29c.6-.385 1.538-.385 2.14 0l15.243 10.126c.913.603.913 1.591 0 2.194l-2.044 1.35c-3.005-4.75-8.295-7.884-14.282-7.884-6.01 0-11.276 3.159-14.281 7.884L.664 12.61c-.89-.603-.89-1.615.024-2.194zm16.302-.12c-4.545 0-8.512 2.41-10.772 5.979l3.51 2.338c1.491-2.459 4.16-4.098 7.237-4.098 3.054 0 5.747 1.64 7.238 4.098l3.51-2.338a12.58 12.58 0 00-10.724-5.98zm0 8.462c-1.587 0-2.982.892-3.727 2.194l2.356 1.543c.385.313.841.506 1.37.506.53 0 1.01-.193 1.371-.506l2.356-1.543a4.276 4.276 0 00-3.727-2.194z" fill="url(#klaviyo_logo-paint0_linear)"/><defs><linearGradient id="klaviyo_logo-paint0_linear" x1="17" y1="23" x2="17" y2="0" gradientUnits="userSpaceOnUse"><stop stop-color="#F0C21A"/><stop offset=".331" stop-color="#93C94B"/><stop offset=".486" stop-color="#70C05A"/><stop offset=".751" stop-color="#12B259"/><stop offset=".903" stop-color="#22AD69"/><stop offset="1" stop-color="#22AD69"/></linearGradient></defs></svg><svg width="32" height="34" fill="none" id="mailchimp_logo" y="239"><path d="M24.07 16.066c.249-.03.486-.03.704 0 .127-.29.148-.79.035-1.334-.17-.809-.398-1.299-.87-1.222-.472.076-.49.662-.32 1.471.094.455.263.844.452 1.085zM20.016 16.706c.338.148.546.246.627.16.053-.053.037-.156-.044-.288-.166-.272-.51-.549-.874-.704-.744-.32-1.632-.214-2.316.279-.227.166-.44.395-.41.535.01.045.044.079.123.09.186.021.838-.308 1.588-.354.53-.033.968.133 1.306.282zM19.337 17.097c-.44.07-.683.215-.84.35-.132.117-.214.245-.214.336a.105.105 0 00.106.108c.1 0 .322-.09.322-.09.613-.22 1.017-.193 1.417-.147.222.025.326.039.375-.037.014-.022.032-.07-.013-.141-.103-.168-.547-.45-1.153-.379zM22.701 18.52c.3.147.628.09.735-.129.107-.218-.048-.514-.347-.66-.299-.148-.628-.09-.735.128-.107.218.048.514.347.661zM24.622 16.84c-.242-.004-.444.263-.45.596-.005.333.187.607.43.61.243.005.444-.262.45-.595.005-.334-.187-.607-.43-.611zM8.316 22.852c-.06-.076-.16-.053-.256-.03a.905.905 0 01-.227.032.491.491 0 01-.414-.21c-.11-.17-.104-.424.018-.715.016-.039.036-.082.057-.13.194-.437.52-1.169.154-1.866-.275-.525-.724-.852-1.264-.921a1.625 1.625 0 00-1.393.503c-.537.593-.62 1.4-.517 1.685.038.105.098.134.14.14.092.012.227-.055.312-.283l.024-.074a2.24 2.24 0 01.223-.525.974.974 0 011.352-.282c.376.247.521.708.36 1.149-.083.228-.217.663-.188 1.02.06.725.505 1.016.905 1.047.389.015.66-.204.73-.364.04-.094.006-.151-.016-.176z" fill="#231F20"/><path d="M12.011 9.548c1.268-1.466 2.829-2.741 4.227-3.457.048-.025.1.027.073.075-.111.201-.325.632-.393.96-.01.05.045.088.088.06.87-.594 2.383-1.23 3.71-1.312.057-.004.084.07.04.104-.203.155-.423.37-.585.587a.057.057 0 00.045.09c.932.007 2.245.333 3.101.814.058.033.017.145-.048.13-1.295-.297-3.416-.523-5.618.015-1.967.48-3.468 1.222-4.563 2.019-.055.04-.122-.033-.077-.085zm6.314 14.21l.001.002-.001-.003zm5.228.617a.102.102 0 00.059-.101.095.095 0 00-.104-.085s-2.706.4-5.262-.536c.279-.906 1.019-.579 2.138-.488 2.016.12 3.824-.175 5.16-.559 1.157-.332 2.677-.988 3.858-1.921.398.876.54 1.84.54 1.84s.307-.056.565.103c.243.15.422.462.3 1.268-.248 1.506-.888 2.729-1.962 3.853a8.088 8.088 0 01-2.357 1.764 9.947 9.947 0 01-1.54.65c-4.05 1.325-8.198-.131-9.535-3.259a5.027 5.027 0 01-.268-.738c-.57-2.061-.086-4.534 1.426-6.09v-.001c.093-.1.188-.216.188-.363 0-.123-.078-.252-.145-.344-.53-.768-2.361-2.077-1.994-4.61.265-1.819 1.854-3.1 3.336-3.024l.375.021c.643.038 1.203.12 1.732.143.884.038 1.68-.09 2.623-.877.317-.265.572-.495 1.003-.568.046-.008.159-.048.384-.037.23.012.449.075.646.206.755.504.862 1.723.902 2.614.022.51.083 1.74.104 2.094.048.809.26.923.69 1.064.242.08.466.139.796.232 1 .281 1.593.566 1.967.932.223.23.326.473.358.705.118.86-.667 1.925-2.748 2.891-2.274 1.057-5.032 1.325-6.938 1.112l-.668-.075c-1.525-.206-2.395 1.767-1.48 3.118.59.87 2.196 1.438 3.804 1.438 3.685 0 6.517-1.575 7.57-2.935a1.38 1.38 0 00.085-.12c.052-.079.009-.122-.056-.078-.86.59-4.684 2.93-8.773 2.227 0 0-.497-.082-.951-.259-.36-.14-1.115-.488-1.207-1.263 3.3 1.022 5.379.056 5.379.056zM5.425 16.523c-1.148.224-2.16.875-2.778 1.774-.37-.308-1.059-.906-1.18-1.139-.988-1.877 1.078-5.528 2.52-7.589C7.553 4.475 13.138.62 15.724 1.32c.42.118 1.812 1.734 1.812 1.734s-2.584 1.436-4.98 3.437c-3.23 2.489-5.67 6.107-7.131 10.033zm1.929 8.615c-.174.03-.351.042-.53.037-1.727-.046-3.592-1.602-3.778-3.448-.205-2.04.837-3.611 2.68-3.983.22-.045.487-.07.775-.055 1.033.056 2.555.85 2.903 3.103.308 1.996-.181 4.027-2.05 4.346zm23.395-3.613c-.015-.052-.111-.405-.244-.83a6.755 6.755 0 00-.27-.724c.532-.796.541-1.508.47-1.911-.075-.5-.283-.926-.702-1.366-.419-.44-1.275-.892-2.48-1.23l-.631-.176c-.003-.026-.034-1.491-.061-2.12-.02-.454-.059-1.164-.279-1.863-.262-.947-.719-1.775-1.29-2.305 1.574-1.633 2.557-3.431 2.554-4.974-.004-2.968-3.645-3.866-8.131-2.006-.005.002-.944.4-.95.404A980.639 980.639 0 0016.99.714C11.875-3.754-4.118 14.042.996 18.364l1.117.948c-.29.751-.404 1.613-.31 2.539.119 1.19.732 2.33 1.725 3.21.943.837 2.183 1.366 3.386 1.365 1.99 4.59 6.536 7.407 11.867 7.565 5.718.17 10.518-2.516 12.53-7.34.13-.34.689-1.865.689-3.212 0-1.354-.764-1.915-1.251-1.915z" fill="#231F20"/></svg><svg width="40" height="28" fill="none" id="saleforce_logo" y="273"><path fill-rule="evenodd" clip-rule="evenodd" d="M16.646 3.054A7.012 7.012 0 0121.718.876c2.64 0 4.944 1.473 6.171 3.659a8.527 8.527 0 013.489-.742c4.762 0 8.622 3.895 8.622 8.7s-3.86 8.7-8.622 8.7c-.583 0-1.15-.059-1.7-.17a6.304 6.304 0 01-8.26 2.594A7.193 7.193 0 0114.799 28a7.195 7.195 0 01-6.749-4.708 6.641 6.641 0 01-1.372.143C2.989 23.435 0 20.415 0 16.69a6.756 6.756 0 013.338-5.844A7.728 7.728 0 012.7 7.76C2.7 3.474 6.178 0 10.469 0a7.756 7.756 0 016.177 3.054z" fill="#00A1E0"/><path fill-rule="evenodd" clip-rule="evenodd" d="M5.794 14.522l.161-.45c.026-.077.084-.051.108-.037.045.027.077.05.136.085.476.301.918.305 1.056.305.357 0 .578-.19.578-.445v-.013c0-.277-.34-.382-.735-.503l-.087-.028c-.542-.154-1.12-.377-1.12-1.062v-.014c0-.65.524-1.103 1.275-1.103l.082-.001c.441 0 .867.128 1.176.315.028.018.055.05.04.093l-.167.45c-.03.076-.11.025-.11.025a2.365 2.365 0 00-1.041-.267c-.319 0-.523.168-.523.398v.014c0 .268.35.382.757.514l.07.022c.54.17 1.115.407 1.115 1.057v.013c0 .702-.51 1.139-1.33 1.139-.403 0-.788-.063-1.196-.279-.077-.045-.153-.083-.228-.138-.008-.011-.043-.025-.018-.09zm12.011 0l.162-.45c.024-.073.093-.046.108-.037l.135.085c.478.301.919.305 1.058.305.356 0 .578-.19.578-.445v-.013c0-.277-.341-.382-.736-.503l-.087-.028c-.542-.154-1.12-.377-1.12-1.062v-.014c0-.65.524-1.103 1.275-1.103l.082-.001c.44 0 .867.128 1.176.315.028.018.055.05.04.093-.015.04-.152.407-.166.45-.03.076-.11.025-.11.025a2.365 2.365 0 00-1.042-.267c-.319 0-.524.168-.524.398v.014c0 .268.351.382.758.514l.07.022c.54.17 1.115.407 1.115 1.057v.013c0 .702-.51 1.139-1.33 1.139-.403 0-.789-.063-1.196-.279-.077-.045-.153-.083-.229-.138-.008-.011-.042-.025-.017-.09zm8.885-2.113c.067.226.1.474.1.736s-.032.51-.1.735a1.65 1.65 0 01-.31.596 1.48 1.48 0 01-.527.396c-.21.096-.457.144-.734.144a1.75 1.75 0 01-.734-.144 1.48 1.48 0 01-.527-.396 1.66 1.66 0 01-.311-.595 2.584 2.584 0 01-.1-.736c0-.263.033-.51.1-.736.067-.228.172-.428.31-.595.144-.17.324-.307.528-.4.21-.098.455-.147.734-.147.278 0 .524.049.734.147.209.098.386.232.526.4.14.167.245.367.311.595zm-.684.736c0-.397-.074-.709-.22-.928-.144-.217-.363-.322-.667-.322-.305 0-.522.105-.664.322-.143.219-.216.531-.216.928 0 .396.073.71.216.93.142.22.36.327.664.327.304 0 .523-.107.667-.326.145-.22.22-.535.22-.931zm6.31 1.15l.167.465c.022.057-.027.082-.027.082-.26.1-.62.172-.97.172-.595 0-1.05-.17-1.353-.509-.302-.337-.456-.795-.456-1.363 0-.263.038-.512.113-.737.074-.227.186-.428.332-.595a1.58 1.58 0 01.552-.4c.219-.098.476-.146.763-.146.194 0 .366.011.514.033.158.025.368.082.457.116.016.006.061.028.043.081-.065.183-.109.302-.169.468-.026.07-.08.047-.08.047a2.289 2.289 0 00-.723-.103c-.339 0-.594.113-.76.334-.168.222-.262.514-.263.902-.002.426.105.741.294.936.189.195.452.293.784.293.134 0 .26-.008.375-.026.113-.018.219-.053.319-.092 0 0 .064-.024.087.042zm3.503-2.015c.15.522.072.973.069.998-.006.06-.067.06-.067.06l-2.318-.001c.014.352.099.601.27.77.167.167.433.273.793.273.55.002.785-.11.952-.17 0 0 .063-.024.087.04l.151.424c.03.072.006.097-.02.111-.145.08-.497.23-1.167.231a2.309 2.309 0 01-.841-.135 1.532 1.532 0 01-.584-.386 1.53 1.53 0 01-.336-.59 2.5 2.5 0 01-.105-.74c0-.263.034-.512.102-.74a1.69 1.69 0 01.314-.602 1.52 1.52 0 01.534-.407c.212-.1.476-.15.765-.15.248 0 .475.054.664.135.145.063.291.175.44.336.095.101.239.324.297.543zm-2.305.484h1.653c-.017-.212-.058-.403-.154-.547-.145-.217-.345-.336-.65-.336-.304 0-.52.12-.663.336a1.36 1.36 0 00-.187.547zM17.25 12.28c.149.522.072.973.07.998-.007.06-.068.06-.068.06l-2.319-.001c.015.352.1.601.27.77.168.167.433.273.793.273.55.002.787-.11.953-.17 0 0 .063-.024.087.04l.151.424c.03.072.006.097-.019.111-.146.08-.499.23-1.168.231a2.306 2.306 0 01-.841-.135 1.539 1.539 0 01-.584-.386 1.535 1.535 0 01-.335-.59 2.485 2.485 0 01-.106-.74c0-.263.034-.512.102-.74.063-.22.17-.425.314-.602.145-.174.328-.313.534-.407.213-.1.476-.15.765-.15.228 0 .454.046.664.135.145.063.291.175.44.336.095.101.24.324.297.543zm-2.306.484h1.654c-.017-.212-.059-.403-.154-.547-.144-.217-.345-.336-.65-.336-.304 0-.52.12-.662.336a1.36 1.36 0 00-.188.547zm-4.089-.11s.183.016.383.044V12.6c0-.309-.065-.454-.191-.552-.13-.099-.323-.15-.573-.15 0 0-.564-.007-1.01.235-.021.013-.038.02-.038.02s-.056.02-.076-.038l-.164-.441c-.026-.063.02-.092.02-.092.209-.163.714-.262.714-.262.206-.036.414-.055.622-.057.463 0 .821.108 1.065.32.244.215.368.56.368 1.024l.002 2.121s.004.061-.054.075c0 0-.085.024-.162.042-.077.018-.356.075-.584.113a4.262 4.262 0 01-.704.059 2.78 2.78 0 01-.614-.063 1.276 1.276 0 01-.472-.205.958.958 0 01-.302-.362 1.2 1.2 0 01-.107-.53c0-.201.042-.381.124-.534.082-.152.195-.282.337-.383a1.5 1.5 0 01.483-.224c.18-.048.373-.073.572-.073.145 0 .267.003.361.01zm-.922 1.629c-.002 0 .208.164.68.135.331-.02.625-.083.625-.083V13.28s-.296-.048-.63-.053c-.471-.006-.673.168-.671.168-.14.098-.207.245-.207.448 0 .13.023.232.07.302.029.047.042.065.133.138zm19.622-2.824c-.021.063-.134.38-.175.486-.015.04-.039.068-.084.063 0 0-.133-.03-.255-.03-.083 0-.203.01-.31.043a.694.694 0 00-.286.172.855.855 0 00-.204.341c-.05.146-.077.377-.077.609v1.727a.07.07 0 01-.043.065.069.069 0 01-.027.005h-.608a.07.07 0 01-.072-.07v-3.458c0-.04.028-.07.067-.07h.594c.04 0 .067.03.067.07v.282c.09-.119.248-.224.392-.288.145-.066.306-.114.598-.097.152.01.349.051.389.067a.063.063 0 01.034.083zM23.84 9.856c.016.007.06.028.043.08l-.179.488c-.014.036-.024.058-.1.035a1.043 1.043 0 00-.309-.048.785.785 0 00-.248.037.474.474 0 00-.195.12.675.675 0 00-.162.247c-.086.245-.119.506-.123.523h.741c.063 0 .082.029.076.075l-.086.482c-.014.07-.078.067-.078.067h-.764l-.521 2.956a4.561 4.561 0 01-.204.779c-.082.214-.167.37-.302.519a1.064 1.064 0 01-.428.298c-.161.06-.356.09-.57.09-.1 0-.21-.002-.34-.033a1.821 1.821 0 01-.211-.062c-.029-.01-.052-.047-.035-.093.015-.046.153-.422.171-.471.024-.06.084-.037.084-.037.041.018.07.029.125.04.055.01.13.02.186.02a.851.851 0 00.273-.039.42.42 0 00.212-.163 1.19 1.19 0 00.162-.33 3.66 3.66 0 00.139-.571l.52-2.902h-.513c-.06 0-.082-.03-.075-.076l.086-.482c.013-.07.079-.067.079-.067h.525l.028-.157c.08-.465.235-.82.466-1.051.233-.235.563-.353.982-.353a1.803 1.803 0 01.545.08zM13.48 14.87c0 .04-.027.07-.066.07H12.8c-.04 0-.066-.031-.066-.07V9.92c0-.037.027-.069.066-.069h.615c.039 0 .066.032.066.07v4.949z" fill="#fff"/></svg><svg width="32" height="34" fill="none" id="sendinblue_logo" y="301"><path fill-rule="evenodd" clip-rule="evenodd" d="M28.758 24.336a6.801 6.801 0 01-4.005 3.111 9.021 9.021 0 00.366-2.529c0-4.262-2.965-7.837-6.945-8.811a6.744 6.744 0 012.958-1.672 6.764 6.764 0 015.144.675c3.238 1.862 4.35 6 2.482 9.226zm-12.754 7.336a6.82 6.82 0 01-4.705-1.897 9.088 9.088 0 002.38-.95c3.703-2.131 5.328-6.475 4.187-10.396 2.834.81 4.917 3.41 4.917 6.49 0 3.723-3.042 6.753-6.78 6.753zM3.249 24.336a6.753 6.753 0 01-.7-5.002 9.09 9.09 0 006.557 2.788 9.2 9.2 0 003.582-.73 9.128 9.128 0 003.006-2.064 6.75 6.75 0 01-3.184 7.48 6.758 6.758 0 01-3.378.904 6.826 6.826 0 01-3.4-.905 6.746 6.746 0 01-2.483-2.471zm0-14.672a6.8 6.8 0 014.005-3.112 9 9 0 00-.367 2.53c0 4.26 2.964 7.835 6.942 8.81-2.12 2.041-5.421 2.538-8.098.998a6.714 6.714 0 01-3.159-4.101 6.682 6.682 0 01.677-5.125zm12.755-7.336c1.771 0 3.454.7 4.702 1.895a9.172 9.172 0 00-2.377.952 9.026 9.026 0 00-4.248 5.516 8.98 8.98 0 00.058 4.879c-2.833-.81-4.915-3.41-4.915-6.488 0-3.724 3.041-6.754 6.78-6.754zm12.754 7.336a6.75 6.75 0 01.699 5.008 9.09 9.09 0 00-8.93-2.486 9.062 9.062 0 00-4.216 2.492 6.693 6.693 0 01.028-3.385 6.711 6.711 0 013.158-4.101 6.76 6.76 0 015.144-.675 6.734 6.734 0 014.117 3.147zM30.782 8.5a9.051 9.051 0 00-5.536-4.231 9.234 9.234 0 00-1.7-.285A9.16 9.16 0 0016.004 0a9.123 9.123 0 00-7.54 3.983A9.156 9.156 0 001.227 8.5a8.994 8.994 0 00-.912 6.892c.15.554.352 1.092.603 1.608a9.087 9.087 0 00.308 8.5c1.565 2.701 4.322 4.295 7.23 4.512A9.169 9.169 0 0016.003 34a9.122 9.122 0 007.539-3.983 9.156 9.156 0 007.24-4.517 9.048 9.048 0 00.306-8.495A9.088 9.088 0 0030.78 8.5" fill="#0092FF"/></svg><svg width="30" height="28" fill="none" id="webhooks_logo" y="335"><path d="M13.808 11.897c-1.25 2.132-2.446 4.197-3.667 6.246-.314.526-.47.954-.219 1.623.692 1.847-.284 3.645-2.118 4.133-1.73.46-3.416-.694-3.759-2.575-.304-1.665.968-3.297 2.776-3.557.151-.022.306-.025.56-.044l2.75-4.682C8.4 11.295 7.372 9.254 7.6 6.725c.16-1.788.853-3.333 2.119-4.6 2.423-2.425 6.12-2.817 8.975-.956 2.74 1.788 3.996 5.27 2.926 8.251l-2.512-.692c.335-1.657.087-3.145-1.014-4.42-.727-.842-1.66-1.283-2.721-1.446-2.128-.326-4.216 1.062-4.836 3.182-.703 2.406.361 4.372 3.27 5.853z" fill="#C73A63"/><path d="M17.595 9.764l2.662 4.568c4.482-1.349 7.862 1.065 9.074 3.649 1.465 3.121.464 6.818-2.412 8.744-2.952 1.977-6.686 1.639-9.301-.9l2.052-1.67c2.583 1.627 4.843 1.55 6.52-.377a4.283 4.283 0 00-.072-5.705c-1.699-1.858-3.974-1.914-6.724-.131-1.141-1.97-2.302-3.922-3.406-5.905-.373-.669-.784-1.056-1.624-1.198-1.402-.236-2.307-1.407-2.361-2.72a2.987 2.987 0 011.96-2.927c1.217-.453 2.645-.087 3.464.919.669.822.881 1.748.53 2.762-.099.282-.225.556-.363.891z" fill="#748191"/><path d="M19.228 22.201h-5.247c-.503 2.091-1.59 3.78-3.462 4.854-1.455.834-3.024 1.117-4.693.845-3.074-.501-5.587-3.298-5.808-6.448-.25-3.568 2.175-6.74 5.409-7.452l.672 2.465c-2.967 1.53-3.994 3.458-3.163 5.869.73 2.121 2.807 3.284 5.061 2.834 2.303-.459 3.463-2.393 3.322-5.497 2.182 0 4.367-.023 6.55.01.852.014 1.51-.075 2.152-.835 1.057-1.25 3.003-1.137 4.141.044 1.164 1.206 1.108 3.147-.123 4.303a2.946 2.946 0 01-4.176-.146c-.229-.248-.409-.542-.635-.846z" fill="#748191"/></svg><svg width="32" height="32" fill="none" id="zapier_logo" y="363"><path d="M20 16.007a9.568 9.568 0 01-.614 3.378 9.576 9.576 0 01-3.38.615h-.013a9.572 9.572 0 01-3.378-.614A9.57 9.57 0 0112 16.007v-.014c0-1.189.219-2.327.614-3.378a9.572 9.572 0 013.38-.615h.013c1.19 0 2.328.219 3.378.615A9.567 9.567 0 0120 15.993v.014zm11.778-2.674h-9.34l6.604-6.604a16.09 16.09 0 00-3.771-3.771l-6.604 6.604V.222A16.098 16.098 0 0016.008 0h-.017c-.905 0-1.793.077-2.658.222v9.34L6.73 2.958a16.08 16.08 0 00-2.042 1.728l-.003.002c-.63.63-1.208 1.313-1.726 2.041l6.604 6.604H.222S0 15.088 0 15.994v.012c0 .906.077 1.795.222 2.66h9.34l-6.604 6.605a16.09 16.09 0 003.771 3.77l6.604-6.603v9.34c.864.144 1.75.221 2.656.222h.023c.904 0 1.791-.078 2.655-.222v-9.34l6.604 6.604a16.09 16.09 0 002.042-1.728l.002-.001c.63-.63 1.208-1.314 1.727-2.042l-6.604-6.604h9.34A16.1 16.1 0 0032 16.01v-.022c0-.905-.078-1.792-.222-2.656z" fill="#FF4A00"/></svg></svg>
