<svg width="16" height="16" viewBox="0 0 16 16" fill="none" xmlns="http://www.w3.org/2000/svg">
<path d="M3.578 5H0V16H3.578V5Z" fill="#222222"/>
<path d="M13.324 5.129C13.286 5.117 13.25 5.104 13.21 5.093C13.17 5.082 13.11 5.073 13.065 5.065C12.8537 5.02176 12.6386 4.99998 12.423 5C11.6643 5.03314 10.9232 5.23964 10.2567 5.60367C9.59022 5.96769 9.01596 6.47956 8.578 7.1V5H5V16H8.578V10C8.578 10 11.278 6.234 12.423 9V16H16V8.577C15.9983 7.78718 15.7347 7.02022 15.2505 6.39627C14.7662 5.77232 14.0887 5.32662 13.324 5.129Z" fill="#222222"/>
<path d="M1.75 3.5C2.7165 3.5 3.5 2.7165 3.5 1.75C3.5 0.783502 2.7165 0 1.75 0C0.783502 0 0 0.783502 0 1.75C0 2.7165 0.783502 3.5 1.75 3.5Z" fill="#222222"/>
</svg>
