<svg width="167" height="80" viewBox="0 0 167 80" fill="none" xmlns="http://www.w3.org/2000/svg">
<path d="M36.6 30.9515C37.0281 32.5859 37.4111 34.2423 37.7265 35.9209C37.7479 36.0649 37.7346 36.2118 37.6877 36.3499C37.6407 36.4879 37.5614 36.6133 37.4562 36.7159C37.2931 36.8968 37.0692 37.0143 36.8253 37.0472C36.6564 37.0516 36.4885 37.0204 36.333 36.9556C36.1775 36.8908 36.0381 36.794 35.9241 36.6718C35.2031 35.6116 34.9778 34.3527 34.0766 33.403C33.97 33.3049 33.8373 33.2383 33.6938 33.211C33.5503 33.1836 33.4018 33.1966 33.2655 33.2484L33.0627 33.4472L33.2204 48.7086C33.2683 48.9467 33.3886 49.1648 33.5656 49.3344C33.7426 49.504 33.9679 49.6169 34.2117 49.6583C34.4025 49.5923 34.5719 49.4778 34.7025 49.3264C34.8332 49.175 34.9204 48.9923 34.9553 48.797L35.0003 47.9356L34.9102 40.4927C34.775 39.9405 34.0315 39.9405 33.9414 39.4104C34.0315 39.1233 34.3695 38.9245 34.6173 38.792C35.6087 38.3724 36.6451 38.0853 37.6139 37.5994C37.9068 37.5773 38.2673 37.5331 38.5376 37.6877L38.7179 37.9307L38.8305 48.5982C38.9207 48.9516 39.0333 49.4596 39.4839 49.5258C39.6867 49.6804 39.6191 49.9455 39.529 50.1442C39.3037 50.4755 38.8756 50.4976 38.5602 50.5418H34.9102C34.6173 50.5639 34.392 50.3651 34.1892 50.1884C33.4006 50.7847 32.0713 50.5418 31.1701 50.608C30.1112 50.4976 28.7819 50.8952 27.8581 50.2767C27.7004 50.1663 27.7454 49.9234 27.7454 49.7909C27.9257 49.4375 28.4439 49.57 28.5565 49.1504L28.7143 48.6645L28.6692 37.0693L28.6016 33.4472C28.5445 33.3603 28.4633 33.2913 28.3675 33.2482C28.2717 33.2052 28.1653 33.1899 28.0609 33.2043C27.6553 33.2484 27.4075 33.646 27.2047 33.9331C26.7316 34.7503 26.4161 35.6558 26.0106 36.4951C25.8741 36.7733 25.6313 36.9876 25.3347 37.0914C25.1376 37.1449 24.929 37.1421 24.7334 37.0834C24.5379 37.0247 24.3635 36.9126 24.2307 36.7601C23.735 36.1638 24.1856 35.3687 24.2307 34.7282L25.0418 31.0398C25.1544 30.8632 25.2445 30.5981 25.4698 30.554C26.1232 30.311 26.281 31.2165 26.8893 31.0398L35.0003 30.9736C35.496 30.9294 35.7889 30.2006 36.3522 30.554L36.6 30.9515Z" fill="#6B737A"/>
<path d="M86.2581 31.1506L86.4383 31.3936L86.4834 33.9114L86.5961 48.5544C86.6636 48.974 86.8214 49.3716 87.272 49.5704C87.3314 49.6611 87.3702 49.7632 87.3857 49.8699C87.4013 49.9766 87.3932 50.0854 87.3621 50.1888C87.1819 50.6747 86.6186 50.7409 86.1229 50.7409L82.7208 50.7188C82.5732 50.7058 82.4303 50.6616 82.302 50.5891C82.1736 50.5167 82.0628 50.4177 81.9773 50.2992C81.9235 50.1934 81.8936 50.0774 81.8897 49.9593C81.8858 49.8411 81.908 49.7235 81.9547 49.6145C82.2927 49.3937 82.6757 49.1728 82.7208 48.709L82.6982 41.8844C82.6532 41.3323 82.7208 40.5151 82.6532 39.985C82.3828 40.6034 82.6982 41.4648 81.9998 41.8182C81.8558 41.8577 81.7047 41.8663 81.557 41.8434C81.4092 41.8206 81.2682 41.7668 81.1436 41.6857C80.8564 41.3836 80.6612 41.0087 80.5804 40.6034C80.3776 40.4268 80.1298 40.5593 79.927 40.6476C77.2909 42.4808 78.4399 46.0587 78.2146 48.8415C78.1696 49.3937 78.9356 49.1949 79.0032 49.7029C78.993 49.9303 78.9058 50.1479 78.7554 50.3213C78.5075 50.5642 78.102 50.5421 77.8091 50.5863L74.069 50.5421C73.947 50.5142 73.8338 50.4573 73.7395 50.3765C73.6452 50.2956 73.5727 50.1932 73.5283 50.0783C73.488 49.9888 73.473 49.8903 73.4849 49.7932C73.4968 49.696 73.5351 49.6038 73.5959 49.5262C73.8212 49.3053 74.2267 49.3495 74.3168 48.9961L74.3394 48.1569L74.2718 40.4709C74.2267 39.8304 73.2354 39.8746 73.3255 39.1679L73.7986 38.7482C74.8801 38.2844 76.0066 37.9531 77.0656 37.4672C77.4711 37.4231 77.8767 37.4231 78.102 37.7764C78.2146 38.3286 78.0569 39.0133 78.2146 39.6096C78.2597 39.6758 78.3498 39.6537 78.3949 39.6317C79.0483 38.6378 79.9044 37.4893 81.2338 37.5777C81.7294 37.6218 82.3152 37.6439 82.5856 38.1077L82.6532 37.9531L82.6081 35.0819L82.5631 35.0599C82.5847 34.7491 82.5619 34.4369 82.4955 34.1322C82.5405 33.4918 81.5041 33.4697 81.8195 32.785C82.7658 31.7028 84.3205 31.8132 85.4245 30.9739C85.715 30.9321 86.0111 30.9949 86.2581 31.1506Z" fill="#6B737A"/>
<path d="M133.663 33.0715L134.226 32.9611C134.226 32.9611 133.348 31.0617 132.987 30.0899C133.282 30.0662 133.578 30.0886 133.866 30.1562C134.294 30.885 135.083 32.2985 135.083 32.2985C135.083 32.2985 136.434 31.5476 137.133 31.1942C137.35 31.2473 137.546 31.3627 137.696 31.5255L135.623 33.3365L136.232 35.0372C136.232 35.0372 137.696 33.0053 138.44 32.0335C138.695 32.1064 138.917 32.2622 139.071 32.4752C138.778 33.0053 138.327 33.4911 138.102 33.9991C138.98 34.0654 139.882 34.0433 140.738 34.1095C140.988 34.3565 141.187 34.6491 141.324 34.9709L139.116 35.1476L138.057 36.9366L139.476 36.6274C139.476 36.6274 140.58 36.1636 141.752 35.7218C141.954 35.9821 142.093 36.2843 142.157 36.6053L139.769 37.5329L137.651 37.9746C137.375 38.3109 137.133 38.6735 136.93 39.0568C138.823 38.7255 140.67 38.1292 142.585 37.7537C142.997 39.1493 143.104 40.6143 142.898 42.053C142.692 43.4918 142.179 44.8716 141.391 46.1023C136.232 47.3832 130.734 45.771 125.394 46.4556L123.84 46.6323C122.736 45.3292 122.195 43.717 121.902 42.0384C121.63 40.2044 121.848 38.3325 122.533 36.6053C122.691 36.5832 125.034 36.3844 125.034 36.3844L123.592 34.6617C123.637 34.3746 123.907 34.1537 124.088 33.9108C124.854 34.6838 126.251 36.274 126.251 36.274L127.062 36.2077L124.583 33.4249C124.858 33.0232 125.21 32.6781 125.62 32.4089L127.715 32.7844C127.715 32.7844 127.693 31.6801 127.738 31.0617C128.171 30.8115 128.642 30.6325 129.134 30.5316C129.563 31.2605 129.855 32.0556 130.329 32.7844C130.869 31.923 131.342 30.9733 131.816 30.0457C131.847 30.0205 131.885 30.0049 131.925 30.001C131.965 29.9971 132.005 30.0049 132.041 30.0236L133.663 33.0715ZM132.109 32.0776L130.982 34.1537L131.635 36.2961L132.604 35.6335L132.875 33.8445C132.627 33.2482 132.379 32.6298 132.109 32.0776ZM128.842 32.2102V33.2482L129.36 33.3586C129.229 32.9588 129.056 32.5737 128.842 32.2102ZM126.115 33.447V33.5132C126.679 34.0654 127.783 35.2801 127.783 35.2801V33.9108L126.115 33.447ZM134.587 33.9329L134.091 34.2421L134.204 34.5954L134.655 34.1979L134.587 33.9329ZM128.909 34.3746L128.977 36.2961L129.72 34.6175L128.909 34.3746ZM137.989 35.1918L137.291 35.2801L136.187 37.0028L136.908 36.9807L137.989 35.1918ZM133.641 36.4507L133.731 38.4384L135.24 36.539C135.334 36.4236 135.396 36.2868 135.421 36.1415L135.128 35.258L133.641 36.4507ZM130.374 36.1856L129.901 37.1132L130.802 38.1292C130.696 37.474 130.553 36.8252 130.374 36.1856ZM132.492 37.0249L131.906 37.312L131.951 38.1071L132.424 38.2617L132.492 37.0249ZM126.453 37.1353L125.642 38.3722L127.287 38.9906L128.661 37.82L128.143 37.2679L126.453 37.1353ZM123.051 37.3783L124.493 38.0409L124.944 37.312L123.051 37.3783ZM135.421 38.2838L134.655 39.5206L135.533 39.4323L136.322 38.1734L135.421 38.2838ZM129.585 38.5488L126.972 40.647L125.71 40.6912C125.956 40.4201 126.182 40.1323 126.386 39.8298C125.925 39.6173 125.451 39.4329 124.966 39.2777L124.043 40.4924C123.75 40.5366 123.412 40.4924 123.186 40.6028C123.119 41.6188 123.344 42.5464 123.524 43.474C123.614 43.717 123.682 44.1145 124.043 44.0924C126.611 44.0924 129.044 44.49 131.568 44.7329V40.912C131.392 40.5816 131.18 40.2707 130.937 39.9844L129.765 40.6691L127.602 40.6912C127.58 40.647 129.382 39.6752 130.193 39.1672C129.991 38.9464 129.855 38.6814 129.585 38.5488ZM123.322 38.593C123.164 38.9243 123.186 39.4323 123.209 39.7857C123.412 39.4544 123.907 38.8139 123.907 38.8139L123.322 38.593ZM141.707 39.101L140.783 39.366C141.031 39.8519 141.594 40.8016 141.594 40.8016L140.49 40.8458L139.499 39.6752L137.899 40.0286L138.35 40.8458L137.538 40.9341L136.908 40.139C136.908 40.139 134.632 40.7795 133.505 41.1329L133.438 41.2433C133.46 42.4801 133.55 43.6728 133.686 44.8654L133.798 45.1305C135.916 45.528 138.057 45.6164 140.31 45.7489L140.512 45.6605C141.121 44.7992 141.459 43.8495 141.797 42.8777C142.135 41.7071 142.225 40.1611 141.707 39.101Z" fill="#6B737A"/>
<path d="M59.7136 31.0835L59.8262 31.3927L59.8713 37.9522C60.1417 38.4381 60.4346 37.6872 60.75 37.643C61.7188 37.3117 62.8453 37.6872 63.5438 38.4381C64.8956 39.8516 65.0984 41.6627 65.4364 43.4958L65.4814 43.4516C65.6842 41.3314 66.1348 39.1007 68.095 37.9522C69.1314 37.3338 70.6409 37.4001 71.6323 37.9743C72.849 39.0344 73.8178 40.3375 73.7727 41.9719C73.7928 42.39 73.7394 42.8083 73.615 43.2087C72.173 43.8934 70.6184 44.3792 69.1539 44.9977C68.816 45.2627 69.1089 45.6823 69.1539 45.9694C69.4018 46.5658 69.7172 47.405 70.4832 47.5155C70.9113 47.648 71.5196 47.913 71.9027 47.5596C72.3533 47.1621 72.0153 45.9473 73.0067 46.2566C73.2083 46.2893 73.3999 46.3658 73.5675 46.4804C73.7352 46.595 73.8745 46.7449 73.9755 46.9191C74.2459 48.0676 73.7051 49.1277 73.1644 49.9891C72.128 50.8504 70.7085 51.005 69.3792 50.8504C66.8107 50.3425 65.887 47.6701 65.5265 45.4394C65.3237 47.4713 65.1885 49.9228 62.9129 50.74C61.516 51.1155 59.9614 50.8504 58.9701 49.8787C58.8574 49.702 58.8123 49.4369 58.5645 49.3486C58.0012 49.3707 58.0012 49.9891 57.6858 50.3425C57.3253 50.5633 56.9423 50.9167 56.4692 50.7621C56.3079 50.6556 56.1762 50.5114 56.0861 50.3425C55.5905 50.8725 54.892 50.6958 54.2161 50.74L51.58 50.6958C51.4246 50.6787 51.2778 50.6172 51.1576 50.5191C51.0375 50.4209 50.9493 50.2904 50.9041 50.1437C50.859 49.8345 51.1744 49.702 51.3998 49.5915C51.6683 49.1862 51.7876 48.7031 51.7377 48.2222C51.6696 45.9799 51.4513 43.7444 51.0843 41.5301C50.9491 41.0884 50.814 40.5805 50.4309 40.2933C50.138 40.1829 49.9353 40.4038 49.7325 40.5584L49.5072 40.9117L49.5297 48.8185C49.6424 49.194 49.8001 49.6136 50.2282 49.7461C50.2794 49.8158 50.3106 49.8976 50.3185 49.983C50.3264 50.0685 50.3108 50.1545 50.2732 50.232C49.7775 50.9388 48.7862 50.5854 48.0877 50.6737C47.2316 50.5633 45.8797 51.005 45.2939 50.2099C45.2529 50.1095 45.2509 49.9979 45.2883 49.8961C45.3256 49.7943 45.3998 49.7095 45.4967 49.6578C45.9248 49.5474 46.0149 49.0836 46.1501 48.7744L46.0825 40.5142C46.0046 40.3737 45.8912 40.2552 45.7531 40.1701C45.615 40.085 45.4569 40.0362 45.2939 40.0283C44.9335 40.0504 44.6406 40.3596 44.4603 40.6467C44.0773 41.3314 44.3026 42.1044 44.2575 42.8995L44.3251 48.8406C44.3026 49.3486 44.8208 49.5032 45.0461 49.8124C45.0663 49.9547 45.0401 50.0997 44.9714 50.2266C44.9026 50.3535 44.7947 50.4559 44.6631 50.5192C43.2211 50.7842 41.9819 50.5854 40.5174 50.6296C40.1795 50.5633 39.7965 50.5412 39.6162 50.2099C39.5486 50.0774 39.5036 49.8345 39.6613 49.7241C39.8283 49.6592 39.978 49.5579 40.0991 49.4278C40.2201 49.2976 40.3093 49.1421 40.3597 48.9731L40.4498 48.5314L40.3597 40.6025C40.2696 39.962 39.2783 40.0504 39.4585 39.3657C39.9316 38.8136 40.6977 38.7031 41.3285 38.416C41.9179 38.2263 42.4906 37.9899 43.0409 37.7093C43.469 37.6872 43.9872 37.6209 44.1674 38.0406C44.1674 38.3498 44.0548 38.7694 44.3702 38.924C44.8659 38.8798 44.9335 38.3056 45.339 38.0627C46.1276 37.4222 47.4569 37.5547 48.3131 37.9522C48.7411 38.1952 48.8763 38.5927 49.1918 38.924C49.755 38.924 49.8226 38.2393 50.2282 37.9964C50.9942 37.5105 52.2334 37.6651 52.9544 38.1068C54.2837 39.1669 54.2837 40.8676 54.6667 42.3473C55.0288 44.375 55.2172 46.4288 55.23 48.4872C55.2976 48.9069 55.275 49.5695 55.8158 49.702L55.9284 49.8124L56.0185 49.6357L55.8608 34.4405C55.8383 33.8663 55.4553 33.4025 55.0723 33.027C55.0447 32.94 55.0406 32.8475 55.0604 32.7585C55.0801 32.6695 55.123 32.587 55.1849 32.5191C56.0411 31.724 57.2127 31.6577 58.204 31.1276C58.6546 30.7522 59.3981 30.6859 59.7136 31.0835ZM68.3879 39.8295C68.1175 41.0443 68.2076 42.1044 68.4329 43.297C68.5231 43.4516 68.5681 43.7167 68.816 43.7167C69.2891 43.4516 69.8524 43.3412 70.2354 42.8774C71.024 41.6627 70.1002 40.3596 69.5144 39.2995C69.0638 38.9903 68.5456 39.3878 68.3879 39.8295ZM61.0879 39.4099C60.8501 39.4967 60.6561 39.671 60.5472 39.8958C59.7361 41.5964 59.6685 43.4516 59.8713 45.3952C60.0515 46.2124 60.1191 47.0958 60.75 47.7142C60.9302 47.8247 61.1781 47.6701 61.3583 47.5375C62.8003 45.3731 62.3722 42.1265 61.5611 39.7854C61.4484 39.697 61.3808 39.3657 61.0879 39.4099Z" fill="#6B737A"/>
<path d="M116.607 31.1723L116.652 31.9453L116.81 47.8914C116.815 47.9839 116.847 48.0729 116.903 48.1475C116.96 48.222 117.037 48.2789 117.125 48.3111C117.305 48.3773 117.598 48.3994 117.621 48.6423C117.644 48.773 117.639 48.9067 117.608 49.0357C117.578 49.1647 117.52 49.2863 117.441 49.3933C116.494 49.9013 115.503 50.2105 114.512 50.5638C114.038 50.6301 113.565 50.9835 113.092 50.6743C112.822 50.4755 113.272 50.0779 112.867 49.9675C112.439 50.2325 112.146 50.7405 111.673 50.873C110.591 51.0718 109.51 50.6301 108.721 49.9233C107.009 48.0019 107.122 44.9761 107.505 42.4804C107.669 40.8039 108.38 39.224 109.532 37.9748C109.815 37.7234 110.154 37.5421 110.523 37.446C110.891 37.3499 111.278 37.3419 111.65 37.4227C112.056 37.4889 112.304 37.8202 112.664 38.0411C112.754 38.019 112.844 37.9748 112.844 37.8865L112.822 34.1539C112.709 33.4472 111.132 33.2926 111.943 32.365C112.259 32.1883 112.709 32.3208 113.047 32.1662C114.038 31.614 115.142 31.2828 116.156 30.7748C116.264 30.7878 116.365 30.833 116.445 30.9041C116.526 30.9752 116.582 31.0688 116.607 31.1723ZM111.628 39.4546C111.312 39.5429 111.245 39.8742 111.132 40.0951C110.704 41.619 110.366 43.3417 110.614 45.0202C110.839 45.9699 110.884 47.008 111.718 47.7368C111.811 47.7956 111.924 47.817 112.033 47.7964C112.142 47.7759 112.239 47.715 112.304 47.6264C113.34 45.727 113.205 43.2534 112.709 41.1331C112.461 40.5147 112.349 39.6975 111.628 39.4546Z" fill="#6B737A"/>
<path d="M105.499 39.0117C105.904 39.6538 106.179 40.366 106.31 41.1098C106.766 43.5413 107.075 45.9972 107.234 48.4645C107.241 48.7706 107.334 49.0689 107.504 49.3258C107.707 49.5025 108.022 49.5246 108.022 49.8338C108.018 49.966 107.975 50.0943 107.9 50.2037C107.824 50.3131 107.718 50.3993 107.594 50.4522C106.333 50.6731 104.891 50.5627 103.584 50.5627C103.435 50.546 103.293 50.4927 103.171 50.4077C103.049 50.3228 102.951 50.2089 102.885 50.0768C102.84 49.878 102.863 49.5909 103.111 49.5025C103.629 49.3038 103.606 48.7295 103.697 48.2657C103.742 45.8142 103.178 43.3405 102.48 41.0436C102.373 40.7434 102.167 40.4868 101.894 40.3148C101.789 40.2819 101.675 40.286 101.572 40.3263C101.469 40.3666 101.384 40.4405 101.331 40.5356L101.263 40.8448L101.376 48.7958C101.353 49.3479 101.939 49.4363 102.119 49.8559C102.164 50.143 101.894 50.3639 101.691 50.4964C100.452 50.7173 98.8975 50.6068 97.6358 50.5847C97.4859 50.5615 97.3447 50.5004 97.2262 50.4075C97.1077 50.3145 97.0159 50.1929 96.9598 50.0547C96.8472 50.143 96.6444 50.3639 96.4867 50.4964C96.0136 50.8719 95.4278 50.8939 94.8645 50.8719C94.2111 50.7393 93.7605 50.2976 93.2423 49.8559H92.9269C91.958 50.7835 90.5161 51.3136 89.2318 50.7393C88.1503 50.4081 87.159 49.4142 87.0238 48.2878C86.7534 46.7859 86.8436 45.0853 88.1278 44.1135C89.1417 43.0313 90.4485 42.6338 91.7327 42.1921C92.0031 41.6399 91.958 40.889 91.7778 40.3148C91.5975 39.9614 91.4849 39.5638 91.0568 39.3871L89.8627 39.2767C89.75 39.2988 89.5923 39.343 89.5698 39.4755C89.6824 39.7847 90.1105 39.8068 90.2006 40.1822C90.3133 40.6902 90.3133 41.3749 89.8852 41.7724C89.2769 42.1479 88.3081 42.3246 87.6772 41.8608C87.1365 41.4411 87.0013 40.8448 87.0013 40.1822C86.9788 39.1442 87.925 38.3933 88.8037 38.0399C90.0655 37.6203 91.3948 37.6865 92.7466 37.8411C93.191 37.8974 93.6139 38.0625 93.9761 38.3211C94.3384 38.5797 94.6284 38.9235 94.8194 39.3209C95.2926 40.5577 95.4278 41.927 95.5855 43.2743C95.6981 44.8203 95.7657 46.4547 95.8558 48.0007C95.8654 48.0861 95.8974 48.1677 95.9488 48.2373C96.0001 48.307 96.069 48.3625 96.1487 48.3982C96.4191 48.3541 96.8021 48.3982 96.8247 48.7295C96.9383 49.0033 96.9994 49.2953 97.0049 49.5909C97.1489 49.5676 97.2844 49.5088 97.3988 49.4199C97.5131 49.331 97.6024 49.215 97.6583 49.0829L97.816 48.5749L97.7259 40.5356C97.6808 39.873 95.9685 39.5859 97.1626 38.9233C98.1314 38.4595 99.1678 38.1062 100.114 37.5982C100.43 37.554 100.813 37.554 101.06 37.7749C101.241 38.0178 101.105 38.3491 101.331 38.57C101.646 38.4595 101.646 38.1062 101.894 37.9074C102.102 37.7015 102.361 37.5525 102.645 37.475C102.93 37.3975 103.23 37.3943 103.516 37.4657C104.346 37.7289 105.051 38.2782 105.499 39.0117ZM91.2596 43.981C89.9979 44.6878 90.3584 46.2338 90.3133 47.3823C90.4259 47.8461 90.5837 48.4424 91.1244 48.6191C91.3276 48.685 91.5464 48.6885 91.7517 48.6294C91.957 48.5702 92.139 48.451 92.2735 48.2878C92.2826 46.8277 92.2149 45.3681 92.0707 43.9148C91.9355 43.5835 91.4849 43.7823 91.2596 43.981Z" fill="#6B737A"/>
<path d="M141.051 46.7205C140.381 47.6233 139.567 48.4139 138.64 49.0616C133.773 48.9953 129.29 47.6922 124.558 47.4714C124.388 47.3514 124.262 47.1811 124.198 46.9855C127.893 46.345 131.656 46.7205 135.328 46.9413C137.259 47.0284 139.194 46.9025 141.096 46.5659L141.051 46.7205Z" fill="#6B737A"/>
<path d="M133.774 48.9958C135.193 49.1504 136.613 49.2608 138.009 49.4375C135.081 51.4473 130.394 51.4915 127.352 49.7246C126.519 49.2166 125.64 48.6645 124.964 47.8915C125.009 47.781 125.167 47.8694 125.28 47.8252L127.307 48.0019L133.774 48.9958Z" fill="#6B737A"/>
</svg>
