<svg width="115" height="25" viewBox="0 0 115 25" fill="none" xmlns="http://www.w3.org/2000/svg">
<path fill-rule="evenodd" clip-rule="evenodd" d="M49 6.25H45.5V7.70236C44.3535 6.94253 42.9784 6.5 41.5 6.5C37.4959 6.5 34.25 9.74594 34.25 13.75C34.25 17.7541 37.4959 21 41.5 21C42.9784 21 44.3535 20.5575 45.5 19.7976V20.8H49V6.25ZM37.75 13.75C37.75 11.6789 39.4289 10 41.5 10C43.5711 10 45.25 11.6789 45.25 13.75C45.25 15.8211 43.5711 17.5 41.5 17.5C39.4289 17.5 37.75 15.8211 37.75 13.75Z" fill="#222222"/>
<path fill-rule="evenodd" clip-rule="evenodd" d="M65.75 1H62.25V7.70236C61.1035 6.94253 59.7284 6.5 58.25 6.5C54.2459 6.5 51 9.74594 51 13.75C51 17.7541 54.2459 21 58.25 21C59.7284 21 61.1035 20.5575 62.25 19.7976V20.8H65.75V1ZM54.5 13.75C54.5 11.6789 56.1789 10 58.25 10C60.3211 10 62 11.6789 62 13.75C62 15.8211 60.3211 17.5 58.25 17.5C56.1789 17.5 54.5 15.8211 54.5 13.75Z" fill="#222222"/>
<path fill-rule="evenodd" clip-rule="evenodd" d="M75 10C72.9289 10 71.25 11.6789 71.25 13.75C71.25 15.8211 72.9289 17.5 75 17.5C77.0711 17.5 78.75 15.8211 78.75 13.75C78.75 11.6789 77.0711 10 75 10ZM67.75 13.75C67.75 9.74594 70.9959 6.5 75 6.5C79.0041 6.5 82.25 9.74594 82.25 13.75C82.25 17.7541 79.0041 21 75 21C70.9959 21 67.75 17.7541 67.75 13.75Z" fill="#222222"/>
<path fill-rule="evenodd" clip-rule="evenodd" d="M88.3624 10.6124C88.0564 10.9185 87.75 11.5198 87.75 12.75V20.75H84.25V12.75C84.25 10.9802 84.6936 9.3315 85.8876 8.13756C87.0815 6.94362 88.7302 6.5 90.5 6.5H92V10H90.5C89.2698 10 88.6685 10.3064 88.3624 10.6124Z" fill="#222222"/>
<path fill-rule="evenodd" clip-rule="evenodd" d="M107.251 10C105.18 10 103.501 11.6789 103.501 13.75C103.501 15.8211 105.18 17.5 107.251 17.5C108.706 17.5 109.97 16.672 110.593 15.4535L113.709 17.0465C112.512 19.3897 110.071 21 107.251 21C103.247 21 100.001 17.7541 100.001 13.75C100.001 9.74594 103.247 6.5 107.251 6.5C110.071 6.5 112.512 8.11032 113.709 10.4535L110.593 12.0465C109.97 10.828 108.706 10 107.251 10Z" fill="#222222"/>
<path fill-rule="evenodd" clip-rule="evenodd" d="M96 4C97.1046 4 98 3.10457 98 2C98 0.895431 97.1046 0 96 0C94.8954 0 94 0.895431 94 2C94 3.10457 94.8954 4 96 4ZM97.75 20.7844V6.5H94.25V20.7844H97.75Z" fill="#222222"/>
<path fill-rule="evenodd" clip-rule="evenodd" d="M25.2378 19.5372C23.2928 17.1347 21.6223 14.6599 19.9859 11.7502C18.3658 8.86825 17.1064 6.12894 16.0193 3.11527C15.5269 1.83005 14.3423 1 13 1C11.6594 1 10.4748 1.83005 9.97428 3.13061C8.89525 6.12894 7.63601 8.86727 6.01417 11.7502C4.37945 14.6569 2.71059 17.1327 0.763798 19.5357C0.263317 20.1509 0 20.8863 0 21.6654C0 23.5043 1.45762 25 3.25007 25C3.46618 25 3.67582 24.9767 3.8595 24.9401C6.89815 24.4052 9.71564 23.9089 12.9998 23.9089C16.2839 23.9089 19.1035 24.4052 22.1211 24.9351C22.3243 24.9767 22.5338 25 22.75 25C24.5424 25 26 23.5043 26 21.6654C26 20.8844 25.7367 20.1494 25.2378 19.5372Z" fill="#006CE7"/>
</svg>
