<svg width="122" height="80" viewBox="0 0 122 80" fill="none" xmlns="http://www.w3.org/2000/svg">
<path d="M66.1371 13.6784C66.8542 14.7223 67.6802 16.1711 67.408 17.4444C66.9855 17.8318 66.3879 17.9617 65.8755 18.2203C65.4578 16.6451 63.4579 13.7053 63.6567 13.7568L63.6283 13.0897C64.5927 12.659 65.3312 13.0839 66.1371 13.6784Z" fill="#6B737A"/>
<path d="M56.9748 21.8456C57.2872 22.3991 56.6067 22.7947 56.1275 22.9936L55.5038 23.1376L51.6413 20.6331L51.6295 20.2598C51.9951 20.5009 52.2247 19.8046 52.6259 19.8549C54.1997 19.7683 55.9724 20.5887 56.9748 21.8456Z" fill="#6B737A"/>
<path d="M79.1151 16.4946C78.6311 16.9018 78.1057 16.3167 77.8134 15.8907L77.5483 15.3091L79.2903 11.0843L79.6595 11C79.4914 11.3979 80.2251 11.4904 80.2512 11.8894C80.6417 13.3991 80.1719 15.2763 79.1151 16.4946Z" fill="#6B737A"/>
<path d="M75.5275 17.5287C74.4968 16.8616 73.2495 16.6498 72.1218 17.2876C70.4082 18.2589 69.2781 20.3795 68.819 22.2906C68.7574 22.5364 68.3681 23.9045 68.6284 24.1257C66.9563 22.7014 65.496 21.022 63.1257 21.2233C60.1957 21.4726 58.0219 24.0882 58.7272 27.1404C58.926 27.9912 59.191 28.684 59.6526 29.4178C60.8288 31.2856 62.8879 33.7058 64.9091 34.6666C69.3041 36.7591 70.5703 36.2711 71.1206 35.7093C71.1407 35.6894 64.6026 34.0346 62.1128 26.4862C60.0147 20.1443 69.2959 29.1954 69.1018 29.2165C69.6627 29.158 70.2473 29.1287 70.6082 28.6302C70.6082 28.6302 70.5431 26.7343 70.5905 25.7138C70.6556 24.3843 71.1609 19.5849 73.4862 20.7493C74.853 21.4375 75.1192 23.0876 75.1062 24.5002C75.0731 27.7255 74.2353 30.9076 72.9264 33.8205C72.5466 34.6654 72.1336 35.4928 71.7443 36.3331C71.7372 36.3471 71.4792 36.8902 71.5999 36.8984C73.0767 36.8164 74.666 34.2933 75.3216 33.0305C76.4399 30.8842 77.3061 28.3821 77.6777 25.9747C77.9783 24.0227 78.2374 21.6832 77.4505 19.8189C77.0623 18.9014 76.3641 18.067 75.5275 17.5287Z" fill="#6B737A"/>
<path d="M96.465 33.0763C96.1076 32.8071 95.6674 32.607 95.3349 32.4549C94.5243 32.0816 93.6474 31.8697 92.7859 31.6497C91.4085 31.2963 90.0074 31.0236 88.5968 30.8434C87.8169 30.7439 87.03 30.6748 86.2442 30.6432C83.8325 30.5379 80.2374 30.5461 78.2955 32.2676C77.2932 33.1571 76.9216 33.9985 77.5488 35.1044C79.3748 31.9832 87.0063 33.2343 88.1755 33.3326C89.947 33.4847 91.6534 33.7937 93.3528 34.3098C93.8214 34.4491 94.2888 34.5883 94.7681 34.689C95.3041 34.8025 95.897 34.861 96.4153 34.648C96.7609 34.5041 97.1668 34.194 97.0319 33.7867C96.9431 33.5082 96.7301 33.2753 96.465 33.0763Z" fill="#6B737A"/>
<path d="M38.3249 32.4882C38.9888 32.0283 39.7781 31.8235 40.2112 31.7064C43.4016 30.8568 46.7304 30.2986 50.0498 30.233C52.8212 30.1815 56.8873 30.4636 59.0848 32.363C60.2197 33.346 60.596 34.2975 59.8517 35.476C59.5523 34.9739 58.9298 34.4906 58.4387 34.1886C56.8932 33.229 54.8046 33.1049 53.0307 33.0558C51.2758 33.009 49.5326 33.1541 47.7836 33.291C45.8713 33.4432 43.985 33.7322 42.1011 34.0927C40.3307 34.4274 38.9793 34.9014 38.1699 34.5058C37.009 33.9359 37.3676 33.1436 38.3249 32.4882Z" fill="#6B737A"/>
<path d="M31.365 33.4958C30.3272 32.3957 28.5829 32.8662 28.1522 34.2624C28.1522 34.2624 28.0717 40.5726 28.0729 40.575C28.0835 40.6733 28.8326 40.4158 29.784 39.5334C31.0443 38.3643 32.4076 35.8001 31.7188 34.0611C31.6407 33.8574 31.5236 33.6679 31.365 33.4958ZM34.5992 33.2021C35.9565 35.5965 35.2169 38.4731 33.5341 40.472C30.9946 43.489 28.2788 44.0297 28.2752 44.1456C28.2752 44.1456 27.9297 53.5349 27.3486 53.357C27.3486 53.357 25.2706 53.2189 24.4044 52.3576C23.7997 51.7607 24.1003 39.5521 24.0151 35.7966C23.9405 32.5748 24.1666 32.3009 24.1666 32.3009C25.7795 29.7274 29.5888 29.3822 32.1058 30.8029C33.1176 31.3729 34.0264 32.1898 34.5992 33.2021Z" fill="#6B737A"/>
<path d="M75.2245 40.0809C75.6765 38.9808 76.8493 38.8555 77.5735 39.6876C77.8966 40.0574 78.1297 40.5501 78.2196 41.0288C78.3794 41.8866 78.1841 42.205 78.1841 42.205C77.8977 42.5514 74.905 43.7404 74.7938 43.6749C74.6364 43.5824 74.7417 41.264 75.2245 40.0809ZM79.7367 46.5023C78.9462 46.3502 79.0255 47.1553 77.7262 48.2706C75.9606 49.7862 74.6281 48.7177 74.6754 46.3677C74.5275 46.129 80.4337 43.9136 80.6325 43.2278C81.3461 40.7667 80.558 37.2335 77.5108 36.5735C76.8777 36.4389 76.1937 36.3827 75.4079 36.5653C71.4886 37.4898 70.0721 47.5123 72.782 50.7903C75.5168 54.0882 80.4171 50.953 81.4514 47.249C81.4514 47.2501 80.7722 46.6966 79.7367 46.5023Z" fill="#6B737A"/>
<path d="M59.7699 43.1539C59.7509 42.0421 59.6728 40.8742 59.3308 39.7881C59.0847 38.9993 58.7462 38.2094 58.1841 37.5868C57.7155 37.066 56.9262 36.647 56.215 36.571C54.6896 36.4083 52.9134 39.2159 52.9134 39.2159C52.7465 39.1491 52.2803 36.4914 50.6898 36.4914C49.4615 36.4914 47.9397 39.3083 47.9397 39.3083C47.9385 39.306 47.8521 36.8483 47.7787 36.2807C47.7042 35.7155 45.0807 35.6897 44.9091 36.5206C44.8783 38.9268 44.0902 49.4303 45.3765 51.1225C45.6297 51.4584 48.0332 52.9974 48.006 51.9956C47.987 51.2805 48.0734 44.8111 48.5042 42.3663C48.6544 41.5178 49.0166 39.8069 50.3478 40.0807C51.6365 40.3475 50.9431 47.4782 51.3206 49.8738C51.3845 50.2916 51.4886 51.0804 51.7265 51.4467C51.9454 51.7826 53.9489 52.5386 53.9489 52.0155C53.9489 51.2992 54.1216 44.0831 54.169 43.2136C54.221 42.2001 54.1311 40.8203 55.0316 40.1041C55.8127 39.485 56.5345 40.3475 56.6245 41.1387C56.8765 43.299 56.6635 45.4711 56.7676 47.6362C56.8185 48.686 56.9014 51.0886 57.2445 51.428C57.5345 51.7159 59.7758 52.72 59.7758 51.9452C59.7734 48.9926 59.8279 46.5993 59.7699 43.1539Z" fill="#6B737A"/>
<path d="M65.7968 47.2654C64.9886 47.9407 64.3271 47.9665 64.3271 47.9665C64.3271 47.9629 64.4489 39.8609 64.4513 39.8504C64.4714 39.7357 64.9968 39.3144 65.7779 39.3951C66.2666 39.449 66.7151 39.7135 67.0358 40.1079C68.528 41.9569 67.4168 45.9102 65.7968 47.2654ZM70.0901 38.8521C68.2073 35.5846 63.7046 36.1698 61.2278 38.6368C60.8681 38.9937 60.6586 57.2247 61.5284 58.4114C61.7781 58.7508 64.1602 59.4963 64.1484 58.4968C64.1448 58.2031 64.1732 54.313 64.2087 51.1017C64.785 51.3697 68.2748 50.4007 69.728 47.3076C70.9516 44.6978 71.4498 41.2126 70.0901 38.8521Z" fill="#6B737A"/>
<path d="M38.1548 47.4085C37.9927 47.6204 37.4483 48.2055 36.9324 48.5391C36.3868 48.889 35.8721 48.965 35.865 48.0487C35.8602 47.3922 36.1312 46.6584 36.3833 46.0604C36.8969 44.8467 38.2956 43.199 39.8068 43.3687C39.8044 43.3687 39.7701 45.2669 38.1548 47.4085ZM42.7025 38.2123C42.0978 36.9905 41.1073 36.1596 39.511 36.0905C37.9169 36.0203 36.0709 36.5048 35.31 38.0321C35.2437 38.1596 35.2047 38.2825 35.1857 38.3949C35.1171 38.6991 35.1443 39.0163 35.3112 39.3229C35.3112 39.3229 36.0508 40.4628 36.4555 40.155C36.962 39.7711 37.4258 39.3299 37.9394 38.9543C38.5134 38.5388 39.9476 37.6154 40.5085 38.5926C40.7653 39.0409 40.7452 39.8355 40.6943 40.3329C40.6766 40.4862 40.6529 40.6454 40.6281 40.7987C36.7667 41.1029 32.7468 43.8871 32.4438 47.8357C32.3196 49.439 32.6971 51.4402 34.4307 52.0406C36.2721 52.6702 37.9252 51.2249 38.9997 49.92C39.6198 49.1628 40.1642 48.346 40.7334 47.5466C40.7334 47.5466 40.6399 51.1992 40.6707 51.7024C40.8162 52.7767 42.4824 51.7176 42.7451 51.6029C43.3096 51.356 43.3486 48.7076 43.3545 48.4419C43.4102 46.0416 44.1107 41.0632 42.7025 38.2123Z" fill="#6B737A"/>
<path d="M89.6915 37.3844C89.611 37.1924 89.4856 37.018 89.301 36.8823C88.7957 36.509 88.0951 36.6096 87.5365 36.8015C86.4774 37.1678 85.6372 37.9543 85.0242 38.866C84.9012 39.0474 84.8053 39.2276 84.7178 39.4066C84.7746 38.5734 84.8325 37.1456 84.5923 36.8179C84.229 36.3287 81.7605 36.6869 81.7061 37.0859C81.6824 37.2591 82.4149 49.8984 82.467 50.2671C82.5889 51.1202 82.4043 51.8306 83.3297 52.1243C83.706 52.2449 85.0657 52.8452 85.1213 51.9207C85.1521 51.4104 85.0609 47.7333 85.0609 47.7333C84.9722 45.6174 85.1745 43.4067 86.2774 41.5448C86.9626 40.3862 88.1626 39.1445 89.5719 38.9303C89.7021 38.9104 89.7506 38.6026 89.7708 38.4973C89.837 38.1298 89.8335 37.7273 89.6915 37.3844Z" fill="#6B737A"/>
<path d="M97.2423 45.8364C96.634 44.8744 95.7855 44.1675 95.0329 43.3284C94.1111 42.3032 92.8058 40.8509 93.575 39.4793C93.975 38.7666 94.7406 38.4904 95.511 38.8813C96.5547 39.4079 96.3524 40.5443 95.8719 41.2863C95.8222 41.36 96.382 41.3904 96.3997 41.3904C96.6589 41.3869 96.8885 41.3576 97.1026 41.2184C98.4292 40.3629 98.028 38.2587 96.9595 37.2393C96.5145 36.8157 95.8802 36.4845 95.2933 36.3511C92.5573 35.718 89.251 37.8245 90.2556 40.8029C90.6249 41.8854 91.2438 42.8521 92.0106 43.6994C92.8224 44.5912 94.2543 45.6339 94.4306 46.8967C94.588 48.0576 93.3999 48.8324 92.3893 48.9459C91.1704 49.0781 90.0592 48.2226 89.6509 47.1132C89.4379 46.5362 89.2072 46.4613 88.8356 46.9681C88.1055 47.9617 88.5043 49.5474 89.3456 50.5141C89.4119 50.5913 89.4817 50.6662 89.5551 50.7376C91.1018 52.2836 94.0306 52.9144 95.982 51.7628C98.1547 50.479 98.57 47.9359 97.2423 45.8364Z" fill="#6B737A"/>
</svg>
