<svg width="113" height="80" viewBox="0 0 113 80" fill="none" xmlns="http://www.w3.org/2000/svg">
<path d="M44.9164 48.0614L44.8536 31.9332C44.8536 30.3116 46.082 28.9999 47.6575 28.9999H47.9652C49.5419 28.9999 50.8207 30.3116 50.8207 31.9332L50.8835 48.0614C50.8835 49.6805 49.6071 50.9959 48.0267 50.9959H47.703C46.1226 50.9959 44.9164 49.6805 44.9164 48.0614Z" fill="#6B737A"/>
<path d="M80.9662 30.9053L87.3099 41.5187C88.6811 43.8107 88.9999 44.4077 88.9999 46.0975C88.9999 48.7626 86.649 50.8016 84.5627 50.8016H75.9973C74.4317 50.8016 73.1701 49.691 73.1701 48.0859V47.9025C73.1701 46.2987 74.4317 44.9996 75.9973 44.9996H81.2481C81.5767 44.9996 81.7859 44.9541 81.8721 44.7404C81.9681 44.5064 81.9422 44.3748 81.7859 44.113L78.0454 37.9442C77.9827 37.8418 77.9137 37.7001 77.7956 37.7001C77.6873 37.7001 77.5937 37.8418 77.5432 37.9518L71.8236 48.0328C70.9374 49.6328 69.8887 50.8016 68.3255 50.8016H57.3354C55.2553 50.8016 53.1592 48.693 53.1592 46.5086V31.9248C53.1592 30.3222 54.422 29.0206 55.979 29.0206H56.3397C57.9004 29.0206 59.1669 30.3222 59.1669 31.9248L59.162 43.8385C59.162 44.2787 59.4721 44.6265 59.9337 44.6265H65.3986C66.3525 44.6265 66.9298 44.2736 67.4319 43.416L74.7763 30.9053C75.4779 29.715 76.6004 29.0788 77.9248 29.0788C79.2061 29.0788 80.2215 29.6746 80.9662 30.9053Z" fill="#6B737A"/>
<path d="M30.7743 43.2526C30.3484 43.2526 30.0075 43.6055 30.0075 44.0419V48.1009C30.0075 49.7047 28.7434 50.9999 27.1852 50.9999H26.8221C25.2638 50.9999 23.9998 49.7047 23.9998 48.1009L24.0022 40.7191C24.0022 38.8459 25.4017 37.2635 27.3636 37.2635H38.8399C40.3969 37.2635 41.6622 38.5638 41.6622 40.1676V40.3498C41.6622 41.9562 40.3969 43.2526 38.8399 43.2526H30.7743Z" fill="#6B737A"/>
<path d="M26.8581 29.4172H40.2262C41.8017 29.4172 43.083 30.6808 43.083 32.2986V32.4807C43.083 34.1061 41.8017 35.419 40.2262 35.419H26.8581C25.2814 35.419 24.0026 34.1061 24.0026 32.4807V32.2796C24.0026 30.6581 25.2814 29.4172 26.8581 29.4172Z" fill="#6B737A"/>
</svg>
