<svg width="145" height="80" viewBox="0 0 145 80" fill="none" xmlns="http://www.w3.org/2000/svg">
<path d="M113.616 41.0218L115.111 37.0497L116.604 41.0218H113.616ZM116.663 34.7941H113.558L109.219 45.5645H111.909L112.897 42.9361H117.323L118.312 45.5645H121L116.663 34.7941ZM94.765 43.6919C93.0128 43.6919 91.595 42.0905 91.595 40.1142C91.595 38.1376 93.0128 36.5351 94.765 36.5351C96.514 36.5351 97.934 38.1376 97.934 40.1142C97.934 42.0905 96.5142 43.6919 94.765 43.6919ZM94.765 34.425C91.6635 34.425 89.1492 36.9723 89.1492 40.1142C89.1492 43.2559 91.6635 45.8021 94.765 45.8021C97.8645 45.8021 100.38 43.2561 100.38 40.1142C100.38 36.9722 97.8645 34.425 94.765 34.425ZM72.6089 43.6919C70.8599 43.6919 69.441 42.0905 69.441 40.1142C69.441 38.1376 70.8599 36.5351 72.6089 36.5351C74.36 36.5351 75.779 38.1376 75.779 40.1142C75.7791 42.0905 74.36 43.6919 72.6089 43.6919ZM72.6089 34.425C69.5083 34.425 66.9964 36.9723 66.9964 40.1142C66.9964 43.2559 69.5083 45.8021 72.6089 45.8021C75.7095 45.8021 78.2238 43.2561 78.2238 40.1142C78.2238 36.9722 75.7095 34.425 72.6089 34.425ZM86.487 34.7941L83.7359 39.1518L80.9826 34.7941H78.2919L82.5508 41.5483V45.5645H84.9192V41.5492L89.1776 34.7941H86.487ZM109.785 34.7941H100.698V36.8595H104.064V45.5645H106.434V36.8593H109.786V34.7941H109.785ZM57.4121 36.8593H60.7791V45.5643H63.1487V36.8593H66.501V34.7941H57.4121V36.8593Z" fill="#6B737A"/>
<path fill-rule="evenodd" clip-rule="evenodd" d="M24 27H50.6472V54H24V27ZM28.6778 40.5543C28.6778 37.0538 32.5289 34.425 37.5601 34.425C42.5914 34.425 46.4425 37.0538 46.4425 40.5543C46.4425 43.9394 42.6897 46.6836 37.5601 46.6836C32.4305 46.6836 28.6778 43.9394 28.6778 40.5543ZM39.62 39.0627C42.4149 38.7539 43.2837 37.8094 43.0985 37.0538C42.9988 36.6463 42.3953 36.1726 41.424 35.8013C40.3854 35.4195 39.194 35.2041 37.9371 35.1683C38.8708 35.5126 39.4339 37.1383 39.62 39.0627ZM37.5601 43.9736C38.2358 43.9736 38.9586 42.963 38.9586 40.5247L38.9584 40.4993C38.5093 40.5378 38.0419 40.558 37.5601 40.558C37.0784 40.558 36.6109 40.5378 36.1619 40.4993L36.1617 40.5247C36.1617 42.9628 36.8845 43.9736 37.5601 43.9736ZM36.2493 39.1269C36.6524 39.152 37.0883 39.1656 37.5596 39.1656C38.0315 39.1656 38.4676 39.152 38.8707 39.1267C38.6584 37.5324 38.0946 36.6055 37.56 36.6055C37.0255 36.6055 36.4616 37.5326 36.2493 39.1269ZM33.6806 35.8068C32.718 36.1774 32.1202 36.6484 32.0209 37.0538C31.8357 37.8096 32.7046 38.7541 35.5001 39.0627C35.6863 37.1383 36.2495 35.5124 37.1832 35.1681C35.9201 35.2041 34.7229 35.4214 33.6806 35.8068ZM30.9224 37.6705C30.3289 38.4091 29.9877 39.3012 29.9877 40.3334C29.9877 43.312 33.2158 45.7941 37.1928 45.9389C36.2668 45.5773 35.4313 43.8268 35.4313 40.5247C35.4313 40.4891 35.4314 40.4536 35.4316 40.4181C32.8264 40.0599 30.9993 39.0392 30.9224 37.6705ZM39.689 40.5247C39.689 43.6839 38.8436 45.5621 37.911 45.9394C41.8956 45.8008 45.1326 43.3162 45.1326 40.3334C45.1326 39.3012 44.7914 38.4091 44.1978 37.6705C44.121 39.0392 42.2939 40.0599 39.6886 40.4181C39.6889 40.4536 39.689 40.4892 39.689 40.5247Z" fill="#6B737A"/>
</svg>
