<svg width="86" height="80" viewBox="0 0 86 80" fill="none" xmlns="http://www.w3.org/2000/svg">
<path fill-rule="evenodd" clip-rule="evenodd" d="M25.4426 59H60.5574C61.3542 59 62 58.3542 62 57.5574V22.4422C62 21.6455 61.3542 21 60.5574 21H25.4426C24.6458 21 24 21.6455 24 22.4422V57.5574C24 58.3542 24.6458 59 25.4426 59ZM50.8082 32.9518H53.7977C53.9246 32.9518 54.0297 33.0537 54.0297 33.1791V46.8193C54.0297 46.9436 53.9246 47.0455 53.7977 47.0455H50.8082C50.6802 47.0455 50.5765 46.9436 50.5765 46.8193V33.1791C50.5765 33.0537 50.6802 32.9518 50.8082 32.9518ZM43.5892 32.9518H32.2016C32.0736 32.9518 31.9707 33.0537 31.9707 33.1791V46.8193C31.9707 46.9436 32.0736 47.0455 32.2016 47.0455H35.1919C35.3192 47.0455 35.4246 46.9436 35.4246 46.8193V36.1138C35.4246 35.9901 35.5275 35.8876 35.6555 35.8876H42.0968C43.9081 35.8876 44.4223 37.2749 44.4223 38.1699V46.8193C44.4223 46.9436 44.5263 47.0455 44.6544 47.0455H47.6428C47.7701 47.0455 47.8744 46.9436 47.8744 46.8193V37.1429C47.8744 36.3447 47.7784 35.197 46.7486 34.1868C45.6711 33.1322 44.6882 32.9518 43.5892 32.9518ZM38.3564 38.384H41.4957C41.6227 38.384 41.7267 38.4859 41.7267 38.6106V46.8196C41.7267 46.9436 41.6227 47.0455 41.4957 47.0455H38.3564C38.2284 47.0455 38.1233 46.9436 38.1233 46.8196V38.6106C38.1233 38.4859 38.2284 38.384 38.3564 38.384Z" fill="#6B737A"/>
</svg>
