<svg width="163" height="80" viewBox="0 0 163 80" fill="none" xmlns="http://www.w3.org/2000/svg">
<path d="M42.4 40.0443C42.4 41.9951 41.94 43.6798 40.836 45.0985C39.088 47.4926 36.236 49 33.2 49C30.532 49 28.324 48.0246 26.576 46.2512C24.828 44.4778 24 42.3498 24 39.7783C24 37.3842 24.92 35.2562 26.76 33.5714C28.508 31.8867 30.716 31 33.292 31C37.156 31 40.468 33.3054 41.94 36.9409H36.972C35.868 35.7882 34.672 35.2562 33.292 35.2562C30.624 35.2562 28.6 37.2956 28.6 39.7783C28.6 42.5271 30.808 44.6552 33.292 44.6552C34.948 44.6552 36.42 43.8571 37.34 42.3498H32.188V38.8916H42.4C42.308 39.2463 42.4 39.6897 42.4 40.0443ZM43.504 48.6453V31.266H49.484C51.324 31.266 52.888 31.3547 53.992 32.2414C55.648 33.3054 56.384 34.9015 56.384 37.1182C56.384 39.9557 54.912 41.9951 52.336 42.7044L56.752 48.6453H51.324L47.92 43.0591V48.6453H43.504ZM48.748 39.335C50.956 39.335 51.968 38.803 51.968 37.2069C51.968 35.7882 51.048 35.1675 49.116 35.1675H47.92V39.335H48.748ZM59.788 33.5714C61.536 31.8867 63.836 31.0887 66.32 31.0887C68.712 31.0887 71.012 31.9754 72.76 33.6601C74.6 35.3448 75.52 37.5616 75.52 39.867C75.52 42.3498 74.6 44.5665 72.944 46.2512C71.196 48.0246 68.804 48.9113 66.32 48.9113C63.652 48.9113 61.444 48.0246 59.604 46.2512C57.948 44.4778 57.028 42.3498 57.028 39.867C57.12 37.3842 58.04 35.2562 59.788 33.5714ZM66.32 44.6552C68.896 44.6552 71.012 42.7044 71.012 39.867C71.012 37.3842 68.896 35.3448 66.412 35.3448C63.744 35.3448 61.628 37.3842 61.628 39.867C61.628 42.5271 63.836 44.6552 66.32 44.6552ZM81.132 31.3547V41.9951C81.132 43.9458 81.776 44.9212 83.248 44.9212C84.812 44.9212 85.548 43.9458 85.548 41.9951V31.3547H89.964V42.1724C89.964 46.4286 87.296 48.9113 83.248 48.9113C79.2 48.9113 76.716 46.5172 76.716 42.1724V31.266L81.132 31.3547ZM91.16 48.6453V31.266H97.14C98.98 31.266 100.544 31.3547 101.648 32.2414C103.304 33.3054 104.04 34.9015 104.04 37.1182C104.04 39.335 103.028 41.197 101.188 42.2611C100.084 42.8818 98.612 43.0591 96.772 43.0591H95.484V48.6453H91.16ZM96.496 39.335C98.704 39.335 99.716 38.803 99.716 37.2069C99.716 35.7882 98.796 35.1675 96.772 35.1675H95.576V39.335H96.496ZM107.444 33.5714C109.1 31.8867 111.4 31.0887 113.976 31.0887C116.368 31.0887 118.668 31.9754 120.416 33.6601C122.256 35.3448 123.176 37.5616 123.176 39.867C123.176 42.3498 122.256 44.5665 120.6 46.2512C118.852 48.0246 116.46 49 113.976 49C111.308 49 109.1 48.1133 107.26 46.3399C105.604 44.5665 104.684 42.4384 104.684 39.867C104.684 37.3842 105.696 35.2562 107.444 33.5714ZM113.976 44.6552C116.552 44.6552 118.668 42.7044 118.668 39.867C118.668 37.3842 116.552 35.3448 114.068 35.3448C111.4 35.3448 109.284 37.3842 109.284 39.867C109.192 42.5271 111.492 44.6552 113.976 44.6552ZM124.004 48.6453V31.266H127.96L134.584 40.8424V31.266H139V48.5567H135.136L128.42 38.9803V48.6453H124.004Z" fill="#6B737A"/>
</svg>
