<svg width="158" height="80" viewBox="0 0 158 80" fill="none" xmlns="http://www.w3.org/2000/svg">
<path fill-rule="evenodd" clip-rule="evenodd" d="M24 32.05H26.5399L37.4838 44.0606V32.05H39.2463V46.6386H37.4838L25.7112 33.5977V46.6386H24V32.05ZM74.9802 40.6584C74.9802 45.9169 70.8317 47 67.4087 47C63.985 47 59.8359 45.9169 59.8359 40.6584V32.05H61.6003V40.6584C61.6003 44.0102 63.7791 45.5567 67.4087 45.5567C70.9876 45.5567 73.1651 44.0102 73.1651 40.6584V32.05H74.9802V40.6584ZM84.211 33.5977H77.4181V32.05H92.8233V33.5977H86.0273V46.6386H84.211V33.5977ZM95.5197 32.05H97.2829V46.6386H95.5197V32.05ZM116.473 42.7723C114.863 45.813 112.166 47 108.589 47C102.883 47 100.187 43.6488 100.187 39.3713C100.187 34.3697 103.609 31.6904 108.538 31.6904C111.702 31.6904 114.916 32.8742 116.213 35.8652L114.709 36.5862C113.67 34.1638 111.388 33.184 108.59 33.184C104.388 33.184 102.005 35.4522 102.005 39.6282C102.005 42.9782 104.285 45.4522 108.744 45.4522C111.649 45.4522 113.671 44.2665 114.864 41.9984L116.473 42.7723ZM70.296 27.3053C73.6746 24.0673 77.9382 19.1908 82.7245 12.0355C85.5009 7.8781 86.9881 4 86.9881 4C86.9881 4 85.1373 10.0766 82.6437 15.3531C78.4608 24.1476 76.1281 26.4263 76.1281 26.4263L70.296 27.3053Z" fill="#6B737A"/>
<path fill-rule="evenodd" clip-rule="evenodd" d="M84.6564 11.556C84.5757 17.0727 83.4497 20.2304 82.7656 21.7098C81.0356 25.4678 79.668 26.1869 79.668 26.1869L75.1233 27.3061C75.1233 27.3061 78.8243 25.0672 81.1977 21.1499C84.2934 16.073 84.6564 11.556 84.6564 11.556ZM116.731 46.6393H118.702L120.621 42.8782H130.112L131.978 46.6393H134L126.429 32.0507H124.251L116.731 46.6393ZM121.399 41.2807L125.34 33.4423L129.282 41.2807H121.399ZM46.3 41.2807L50.2426 33.4423L54.1838 41.2807H46.3ZM41.6333 46.6393H43.6055L45.5214 42.8782H55.0144L56.8809 46.6393H58.9038L51.331 32.0507H49.1529L41.6333 46.6393Z" fill="#6B737A"/>
</svg>
