<svg width="17" height="15" viewBox="0 0 17 15" fill="none" xmlns="http://www.w3.org/2000/svg">
<path fill-rule="evenodd" clip-rule="evenodd" d="M15.7736 11.5858C14.558 10.0842 13.5139 8.53743 12.4912 6.71887C11.4786 4.91765 10.6915 3.20559 10.012 1.32205C9.70434 0.518781 8.96392 0 8.12503 0C7.28715 0 6.54673 0.518781 6.23393 1.33163C5.55953 3.20559 4.77251 4.91705 3.75886 6.71887C2.73715 8.53557 1.69412 10.083 0.477373 11.5848C0.164573 11.9693 0 12.429 0 12.9159C0 14.0652 0.911014 15 2.0313 15C2.16636 15 2.29739 14.9855 2.41219 14.9626C4.31134 14.6283 6.07227 14.3181 8.12485 14.3181C10.1774 14.3181 11.9397 14.6283 13.8257 14.9594C13.9527 14.9855 14.0836 15 14.2188 15C15.339 15 16.25 14.0652 16.25 12.9159C16.25 12.4277 16.0854 11.9684 15.7736 11.5858Z" fill="white"/>
</svg>
