<svg width="16" height="16" viewBox="0 0 16 16" fill="none" xmlns="http://www.w3.org/2000/svg">
<path d="M8.71687 0C4.33187 0 1.99987 2.81 1.99987 5.874C1.9849 6.62595 2.16778 7.36864 2.5302 8.02766C2.89262 8.68669 3.42185 9.2389 4.06487 9.629C4.25687 9.715 4.36487 9.678 4.40587 9.499C4.44287 9.363 4.60587 8.708 4.69087 8.399C4.70538 8.35081 4.70672 8.29962 4.69476 8.25073C4.6828 8.20185 4.65798 8.15706 4.62287 8.121C4.13478 7.48702 3.86877 6.7101 3.86587 5.91C3.87813 5.32802 4.00815 4.75456 4.2481 4.22421C4.48804 3.69386 4.83292 3.2176 5.26195 2.82418C5.69098 2.43076 6.19525 2.12832 6.74436 1.93511C7.29346 1.7419 7.87602 1.66192 8.45687 1.7C9.00059 1.6557 9.54757 1.72509 10.063 1.90374C10.5784 2.08238 11.051 2.36638 11.4507 2.73765C11.8504 3.10892 12.1684 3.55934 12.3845 4.06022C12.6006 4.56111 12.71 5.1015 12.7059 5.647C12.7059 8.272 11.3169 10.088 9.51187 10.088C9.28657 10.1069 9.06 10.0721 8.85072 9.98656C8.64145 9.90099 8.45543 9.76706 8.3079 9.59573C8.16038 9.42439 8.05555 9.22054 8.00201 9.00088C7.94847 8.78122 7.94774 8.552 7.99987 8.332C8.37677 7.28169 8.6602 6.20016 8.84687 5.1C8.86463 4.92336 8.84425 4.74496 8.78711 4.57688C8.72997 4.4088 8.6374 4.25494 8.51567 4.12572C8.39394 3.9965 8.24588 3.89492 8.0815 3.82786C7.91712 3.76079 7.74026 3.72981 7.56287 3.737C7.28674 3.77114 7.02004 3.85935 6.778 3.99659C6.53597 4.13383 6.32335 4.31742 6.15229 4.53686C5.98123 4.7563 5.85509 5.0073 5.78106 5.27551C5.70704 5.54372 5.68659 5.82388 5.72087 6.1C5.7137 6.5959 5.81614 7.08727 6.02087 7.539C6.02087 7.539 5.02087 11.603 4.82987 12.363C4.66128 13.5383 4.68797 14.7334 4.90887 15.9C4.91131 15.9214 4.92018 15.9415 4.93431 15.9577C4.94844 15.9739 4.96715 15.9854 4.98798 15.9907C5.00881 15.996 5.03076 15.9949 5.05092 15.9874C5.07108 15.98 5.0885 15.9666 5.10087 15.949C5.79655 14.9922 6.35403 13.9422 6.75687 12.83C6.88087 12.373 7.38987 10.52 7.38987 10.52C7.65861 10.8813 8.01153 11.1714 8.41795 11.3652C8.82438 11.559 9.27199 11.6506 9.72187 11.632C12.7859 11.637 14.9999 8.944 14.9999 5.6C14.9879 2.4 12.2459 0 8.71687 0Z" fill="#222222"/>
</svg>
