<svg width="16" height="16" viewBox="0 0 16 16" fill="none" xmlns="http://www.w3.org/2000/svg">
<path d="M16 3.5392C15.3981 3.80168 14.7616 3.97614 14.11 4.0572C14.7963 3.6494 15.3096 3.0045 15.553 2.2442C14.9099 2.62524 14.2064 2.89376 13.473 3.0382C13.023 2.55885 12.4393 2.22578 11.7977 2.08216C11.156 1.93854 10.4861 1.99101 9.87462 2.23276C9.26318 2.47452 8.73847 2.8944 8.36855 3.43797C7.99863 3.98153 7.80055 4.6237 7.8 5.2812C7.79747 5.53259 7.82296 5.78347 7.876 6.0292C6.57102 5.9658 5.29414 5.62758 4.12889 5.03668C2.96363 4.44578 1.93626 3.61552 1.114 2.6002C0.69245 3.32164 0.562029 4.17672 0.749344 4.99102C0.936659 5.80532 1.42759 6.51748 2.122 6.9822C1.60309 6.96955 1.09481 6.83236 0.64 6.5822V6.6182C0.641879 7.37497 0.904271 8.108 1.38306 8.69405C1.86184 9.28011 2.52782 9.68343 3.269 9.8362C2.98825 9.9113 2.69861 9.94796 2.408 9.9452C2.19958 9.94907 1.99136 9.9303 1.787 9.8892C1.99907 10.5402 2.40765 11.1094 2.95653 11.5186C3.5054 11.9278 4.1676 12.1568 4.852 12.1742C3.69107 13.0826 2.25909 13.5755 0.785 13.5742C0.522619 13.5757 0.260415 13.5603 0 13.5282C1.5 14.4945 3.24772 15.0057 5.032 15.0002C6.26023 15.0087 7.4779 14.7731 8.61431 14.3071C9.75071 13.841 10.7832 13.1538 11.6518 12.2854C12.5204 11.417 13.2078 10.3847 13.6741 9.24836C14.1404 8.11206 14.3762 6.89443 14.368 5.6662C14.368 5.5212 14.363 5.3812 14.356 5.2422C15.0028 4.77895 15.5598 4.20189 16 3.5392Z" fill="#222222"/>
</svg>
