<svg width="256" height="256" viewBox="0 0 256 256" fill="none" xmlns="http://www.w3.org/2000/svg">
<rect width="256" height="256" fill="white"/>
<path fill-rule="evenodd" clip-rule="evenodd" d="M200.297 162.242C188.806 147.964 178.937 133.256 169.27 115.965C159.699 98.8376 152.258 82.5583 145.836 64.6485C142.928 57.0106 135.929 52.0777 127.999 52.0777C120.08 52.0777 113.081 57.0106 110.124 64.7396C103.75 82.5583 96.3104 98.8318 86.7291 115.965C77.0716 133.239 67.2125 147.952 55.7115 162.233C52.7548 165.889 51.1992 170.259 51.1992 174.889C51.1992 185.818 59.8104 194.706 70.3997 194.706C71.6764 194.706 72.9148 194.568 74 194.35C91.9513 191.172 108.596 188.222 127.998 188.222C147.399 188.222 164.057 191.172 181.884 194.321C183.084 194.568 184.322 194.706 185.599 194.706C196.188 194.706 204.799 185.818 204.799 174.889C204.799 170.248 203.244 165.88 200.297 162.242Z" fill="#006CE7"/>
</svg>
